<?xml version="1.0" encoding="UTF-8"?>
<svg version="1.1" xmlns="http://www.w3.org/2000/svg" width="852" height="785">
<path d="M0 0 C2.75 2.4375 2.75 2.4375 5 5 C5.47953125 5.46535156 5.9590625 5.93070313 6.453125 6.41015625 C13.88330092 14.04672595 16.47575194 23.71089532 16.5625 34.125 C16.36330156 46.0619663 12.4657125 56.2198871 4.15234375 64.9375 C-0.89505755 69.59355209 -0.89505755 69.59355209 -4.16629028 70.79685974 C-6.91360776 71.91808103 -8.82685499 72.96497488 -11 75 C-12.35266195 79.36652851 -12.18745094 83.63495881 -12.09765625 88.17578125 C-12.11184853 90.09622505 -12.11184853 90.09622505 -12.12632751 92.0554657 C-12.15089516 95.44786749 -12.12190332 98.83775163 -12.08154297 102.22991943 C-12.04985226 105.6956841 -12.06909626 109.16113092 -12.08398438 112.62695312 C-12.10283788 119.41864895 -12.07078126 126.20867883 -12 133 C-10.35439087 132.97945557 -10.35439087 132.97945557 -8.67553711 132.95849609 C1.60306458 133.07456134 9.44772179 138.7653226 16.6875 145.5 C19 148 19 148 21.1875 151.25 C27.71730099 157.6346943 41.09452354 155.19483415 49.86935425 155.33047485 C249.93638948 158.63813618 249.93638948 158.63813618 294.3125 199.75 C299.42775808 205.18290794 303.23278426 211.5990186 307 218 C307.5465625 218.91136719 308.093125 219.82273438 308.65625 220.76171875 C316.84613914 235.68212849 320.23123148 252.99880594 323.4375 269.5625 C323.56914551 270.23866364 323.70079102 270.91482727 323.83642578 271.61148071 C326.1624699 283.68628889 326.1624699 283.68628889 326 290 C326.58265625 289.95359375 327.1653125 289.9071875 327.765625 289.859375 C337.52898979 289.42954133 346.60518061 292.01565397 354.19140625 298.30859375 C363.26804683 306.79711507 367.69430484 315.34721193 368.5625 327.75 C368.64628906 328.92046875 368.73007812 330.0909375 368.81640625 331.296875 C368.87699219 332.18890625 368.93757812 333.0809375 369 334 C370.2684375 334.14695312 370.2684375 334.14695312 371.5625 334.296875 C381.33969748 335.5856874 388.12480074 337.24475501 394.67578125 344.828125 C398.6274643 351.30935148 399.44075959 357.17975041 399.38818359 364.59375 C399.39344055 365.51841064 399.39869751 366.44307129 399.40411377 367.39575195 C399.41724093 370.43067676 399.40860148 373.46507051 399.3984375 376.5 C399.40046032 378.62174581 399.4033735 380.74349094 399.40713501 382.86523438 C399.41154851 387.30345302 399.40515862 391.74149004 399.39111328 396.1796875 C399.37402214 401.85557514 399.38386853 407.53103713 399.40183067 413.20690918 C399.41269478 417.58564433 399.40921009 421.96427933 399.4014473 426.34301758 C399.39945256 428.43530325 399.40187893 430.52759815 399.40888596 432.61987305 C399.41654365 435.54890881 399.40483571 438.4772646 399.38818359 441.40625 C399.39425629 442.26259033 399.40032898 443.11893066 399.40658569 444.0012207 C399.32469738 451.81492571 397.32153012 458.55381519 391.921875 464.39453125 C385.30629137 469.92096391 377.44432264 471.79850857 369 472 C368.92523437 472.72703125 368.85046875 473.4540625 368.7734375 474.203125 C367.27788903 485.6396721 362.90413282 496.31350515 353.8515625 503.76953125 C344.18605078 511.0110424 334.94217415 513.47844528 323 514 C322.9589917 514.65846924 322.9179834 515.31693848 322.87573242 515.99536133 C322.34312944 523.10695666 321.08740766 529.78782733 319.3125 536.6875 C319.04630859 537.73260742 318.78011719 538.77771484 318.50585938 539.85449219 C310.93793696 568.78176269 296.96336423 593.20564544 270.82275391 608.93798828 C220.9651601 637.98708191 139.45139989 636.84116324 83 636 C83.34667725 636.69222656 83.69335449 637.38445313 84.05053711 638.09765625 C131.61522161 733.58873389 131.61522161 733.58873389 120.9375 766.25 C117.82443568 770.66854291 114.17827004 774.27390999 109 776 C107.46541518 776.0935043 105.92708806 776.13088327 104.38966084 776.13422108 C103.43765429 776.13867892 102.48564774 776.14313676 101.50479251 776.14772969 C100.45675911 776.14754533 99.40872571 776.14736097 98.32893372 776.14717102 C97.21720517 776.15084771 96.10547663 776.1545244 94.96005934 776.1583125 C91.21531165 776.16937164 87.47059168 776.17319696 83.72583008 776.17700195 C81.04874505 776.1832649 78.37166302 776.18989859 75.69458008 776.19691467 C67.64678325 776.21667784 59.59898517 776.22674522 51.55117014 776.23564246 C47.76117545 776.24002571 43.97118217 776.24539244 40.18118858 776.25063133 C27.58204978 776.26764366 14.98291184 776.28213771 2.38376331 776.28938007 C-0.88584075 776.29128996 -4.1554448 776.2932103 -7.42504883 776.29516602 C-8.6440131 776.29589163 -8.6440131 776.29589163 -9.8876029 776.2966319 C-23.05113231 776.30493174 -36.21457082 776.33026785 -49.37806054 776.36274669 C-62.89314429 776.39582112 -76.40818185 776.41382919 -89.92330629 776.41702431 C-97.51138431 776.41918909 -105.09932981 776.42793285 -112.68736839 776.45348549 C-119.14991691 776.47519779 -125.61230072 776.48324037 -132.07488158 776.47351871 C-135.37114975 776.4689754 -138.66700732 776.47304584 -141.96324348 776.49028015 C-145.54045479 776.50793724 -149.116804 776.5009222 -152.6940155 776.48774719 C-154.24933519 776.50420106 -154.24933519 776.50420106 -155.83607548 776.52098733 C-161.99437408 776.46622959 -166.92556362 775.69098795 -172 772 C-176.63034522 766.18238677 -177.55180378 761.29286 -177 754 C-176.21236691 748.91584707 -175.1589236 743.89930263 -174.0625 738.875 C-173.90794342 738.15746552 -173.75338684 737.43993103 -173.59414673 736.70065308 C-166.16309732 702.39073628 -155.65363402 667.52253082 -138 637 C-138.78734528 636.96099075 -139.57469055 636.92198151 -140.38589478 636.88179016 C-185.41599138 634.63628439 -230.24633931 632.20950132 -274.8125 625 C-275.52586517 624.88634094 -276.23923035 624.77268188 -276.97421265 624.65557861 C-290.49102742 622.46655811 -304.32882158 619.37745207 -316.6875 613.3125 C-317.38045166 612.97782715 -318.07340332 612.6431543 -318.78735352 612.29833984 C-334.02423702 604.67554121 -347.03907209 593.57945022 -356 579 C-356.63550781 577.97003906 -357.27101563 576.94007813 -357.92578125 575.87890625 C-368.97132894 557.06156451 -373.53741092 535.12017965 -378 514 C-378.87172852 513.94739014 -379.74345703 513.89478027 -380.64160156 513.84057617 C-382.37361816 513.724198 -382.37361816 513.724198 -384.140625 513.60546875 C-385.28047852 513.53223389 -386.42033203 513.45899902 -387.59472656 513.38354492 C-398.27302961 512.18081951 -408.00684018 506.98144636 -414.8125 498.6875 C-419.88515779 491.71995148 -423.17666386 484.42645359 -423.0625 475.75 C-423.05347656 474.85796875 -423.04445313 473.9659375 -423.03515625 473.046875 C-423.02355469 472.37140625 -423.01195312 471.6959375 -423 471 C-423.60585938 471.04640625 -424.21171875 471.0928125 -424.8359375 471.140625 C-433.39400204 471.50928009 -440.48073022 469.64529623 -446.9375 463.8125 C-451.51663008 459.36838113 -453.11174035 452.53738082 -453.38095093 446.33374023 C-453.39850617 444.65878167 -453.40013392 442.98360168 -453.38818359 441.30859375 C-453.39344055 440.38539337 -453.39869751 439.46219299 -453.40411377 438.51101685 C-453.41722151 435.48633456 -453.40860847 432.46218681 -453.3984375 429.4375 C-453.40046088 427.31957906 -453.40337452 425.2016588 -453.40713501 423.08374023 C-453.41154588 418.65569391 -453.40516715 414.22782975 -453.39111328 409.79980469 C-453.3740223 404.14085894 -453.38387011 398.48234014 -453.40183067 392.82341003 C-453.41270192 388.4532147 -453.40920684 384.08311959 -453.4014473 379.71292114 C-453.39945453 377.62704416 -453.40187192 375.54115789 -453.40888596 373.45529175 C-453.41655551 370.53375343 -453.40481935 367.61289434 -453.38818359 364.69140625 C-453.39425629 363.84023224 -453.40032898 362.98905823 -453.40658569 362.11209106 C-453.33749443 355.52004418 -452.16290065 349.33327659 -448.52734375 343.73046875 C-442.43426323 337.8170368 -435.93406762 334.78631853 -427.375 334.75 C-425.91564104 334.81286469 -424.45644618 334.88844242 -423 335 C-423.04640625 334.11699219 -423.0928125 333.23398437 -423.140625 332.32421875 C-423.50234274 320.29710385 -421.22864365 310.9905551 -413 302 C-405.65040768 294.27025635 -398.15407854 291.30262836 -387.6640625 289.89453125 C-386.41318848 289.7241333 -385.16231445 289.55373535 -383.87353516 289.37817383 C-382.92526855 289.25337646 -381.97700195 289.1285791 -381 289 C-380.81993408 287.86292603 -380.81993408 287.86292603 -380.63623047 286.70288086 C-375.01268137 251.62050469 -368.4936301 214.07214541 -338.10791016 191.46582031 C-313.46862821 173.97616961 -283.15662165 169.52071708 -253.875 165.4375 C-252.83018463 165.29003326 -251.78536926 165.14256653 -250.70889282 164.9906311 C-203.48960202 158.36819375 -156.07257941 156.12286945 -108.43579102 155.34106445 C-103.28966665 155.25498996 -98.1448946 155.14147584 -93 155 C-92.2372879 154.98086548 -91.47457581 154.96173096 -90.68875122 154.9420166 C-88.58797359 154.88131135 -86.49003972 154.79541931 -84.390625 154.69921875 C-82.64894043 154.62900513 -82.64894043 154.62900513 -80.87207031 154.55737305 C-77.53053703 153.9088929 -76.54717456 153.07898049 -74.5625 150.375 C-74.14484375 149.65441406 -73.7271875 148.93382812 -73.296875 148.19140625 C-68.9403218 140.82988112 -60.86895404 136.64610923 -53 134 C-48.05 133.01 -48.05 133.01 -43 132 C-42.67 112.86 -42.34 93.72 -42 74 C-43.65 73.67 -45.3 73.34 -47 73 C-58.00423421 66.89636527 -64.61400575 58.67181942 -69 47 C-72.26015242 35.47932625 -70.73384303 22.37685739 -65 12 C-58.11418919 0.93908218 -47.69158694 -5.6824466 -35.125 -8.6875 C-22.06971488 -9.99302851 -10.76233317 -7.81810894 0 0 Z M-240.4375 228.5625 C-241.24720245 228.66246277 -242.05690491 228.76242554 -242.8911438 228.86541748 C-263.38369912 231.41938892 -279.09375989 235.14301999 -293.07421875 251.4140625 C-318.5632331 285.36255449 -313.36249344 344.33212433 -313.26074219 384.59985352 C-313.24934015 389.15283121 -313.25613668 393.70557515 -313.26762676 398.25854492 C-316.0730559 475.12089113 -316.0730559 475.12089113 -288 543 C-287.42378906 543.67417969 -286.84757812 544.34835937 -286.25390625 545.04296875 C-276.42030243 555.72551678 -264.07753507 559.86995104 -250.125 561.875 C-248.41123169 562.1215332 -248.41123169 562.1215332 -246.6628418 562.37304688 C-214.4486232 566.79118456 -182.00214828 569.23054716 -149.5625 571.25 C-148.56277349 571.31267563 -148.56277349 571.31267563 -147.54285049 571.37661743 C-143.00951562 571.66044126 -138.47565483 571.93432159 -133.94140625 572.203125 C-132.84785828 572.26957214 -131.7543103 572.33601929 -130.62762451 572.40447998 C-108.56729853 573.67044843 -86.49979563 574.16389185 -64.40625 574.203125 C-61.94053126 574.21010944 -59.47481267 574.21715034 -57.00909424 574.22424316 C-49.84255978 574.24185986 -42.6760515 574.24823069 -35.50949669 574.24956322 C-33.49036512 574.25000209 -31.47123406 574.25086793 -29.45210266 574.25178528 C12.76751387 574.2674461 54.86076597 573.80689384 97 571 C98.18404419 570.92267639 99.36808838 570.84535278 100.5880127 570.76568604 C129.45132203 568.87252019 158.27774892 566.4435192 187 563 C188.07008301 562.87270508 189.14016602 562.74541016 190.24267578 562.61425781 C208.700652 560.33472429 223.6478408 554.38361071 236 540 C255.52547293 513.4347307 256.23833289 472.49879998 258 441 C258.08677002 439.46811035 258.08677002 439.46811035 258.17529297 437.90527344 C266.5682234 338.25470655 266.5682234 338.25470655 235.75 247.75 C225.42068237 236.86794297 213.80082336 232.13687702 199.125 230.0625 C198.03823975 229.90338135 196.95147949 229.7442627 195.83178711 229.58032227 C162.69369657 224.8975467 129.40101226 221.94525508 96 220 C95.15435486 219.95014954 94.30870972 219.90029907 93.43743896 219.84893799 C12.29286059 215.08421035 -69.66825269 215.29844919 -240.4375 228.5625 Z " fill="#39B0E7" transform="translate(453,9)"/>
<path d="M0 0 C1.39671025 0.03774221 2.79353372 0.07146837 4.19042969 0.1015625 C7.98741555 0.19235307 11.78136938 0.32964835 15.57653809 0.47674561 C21.59450069 0.7012726 27.61515553 0.84754009 33.63531494 0.99935913 C35.3099505 1.04182954 36.98455217 1.08565588 38.65911865 1.13076782 C59.22512785 1.6748888 79.79422253 1.67798594 100.36595154 1.68588257 C103.08304221 1.6874754 105.8001239 1.69101677 108.51721191 1.69506836 C131.57962267 1.7255187 154.57584724 1.38356094 177.62133789 0.45141602 C182.41396294 0.2583135 187.20457478 0.11110091 192 0 C193.29679688 -0.06251953 194.59359375 -0.12503906 195.9296875 -0.18945312 C204.79531617 -0.34119884 204.79531617 -0.34119884 207.69335938 2.08447266 C209.05482414 4.18728297 209.96734958 6.23007269 210.875 8.5625 C211.58008495 9.9314721 212.29366218 11.29610329 213.015625 12.65625 C226.57425184 40.5587278 255.09335564 99.36517688 244.8125 130.8125 C241.69943568 135.23104291 238.05327004 138.83640999 232.875 140.5625 C231.34041518 140.6560043 229.80208806 140.69338327 228.26466084 140.69672108 C227.31265429 140.70117892 226.36064774 140.70563676 225.37979251 140.71022969 C224.33175911 140.71004533 223.28372571 140.70986097 222.20393372 140.70967102 C221.09220517 140.71334771 219.98047663 140.7170244 218.83505934 140.7208125 C215.09031165 140.73187164 211.34559168 140.73569696 207.60083008 140.73950195 C204.92374505 140.7457649 202.24666302 140.75239859 199.56958008 140.75941467 C191.52178325 140.77917784 183.47398517 140.78924522 175.42617014 140.79814246 C171.63617545 140.80252571 167.84618217 140.80789244 164.05618858 140.81313133 C151.45704978 140.83014366 138.85791184 140.84463771 126.25876331 140.85188007 C122.98915925 140.85378996 119.7195552 140.8557103 116.44995117 140.85766602 C115.2309869 140.85839163 115.2309869 140.85839163 113.9873971 140.8591319 C100.82386769 140.86743174 87.66042918 140.89276785 74.49693946 140.92524669 C60.98185571 140.95832112 47.46681815 140.97632919 33.95169371 140.97952431 C26.36361569 140.98168909 18.77567019 140.99043285 11.18763161 141.01598549 C4.72508309 141.03769779 -1.73730072 141.04574037 -8.19988158 141.03601871 C-11.49614975 141.0314754 -14.79200732 141.03554584 -18.08824348 141.05278015 C-21.66545479 141.07043724 -25.241804 141.0634222 -28.8190155 141.05024719 C-29.8558953 141.06121644 -30.89277509 141.07218568 -31.96107548 141.08348733 C-38.11937408 141.02872959 -43.05056362 140.25348795 -48.125 136.5625 C-52.75534522 130.74488677 -53.67680378 125.85536 -53.125 118.5625 C-52.33736691 113.47834707 -51.2839236 108.46180263 -50.1875 103.4375 C-49.95566513 102.36119827 -49.95566513 102.36119827 -49.71914673 101.26315308 C-43.44725045 72.3051651 -34.33574984 44.54321491 -22.3125 17.4375 C-21.96380859 16.65028564 -21.61511719 15.86307129 -21.25585938 15.05200195 C-20.5850914 13.58190215 -19.89020267 12.12251192 -19.16894531 10.67651367 C-18.08625493 8.55727049 -18.08625493 8.55727049 -17.21386719 6.25512695 C-13.61178714 -1.47910227 -7.7033889 -0.38176087 0 0 Z " fill="#219EDC" transform="translate(329.125,644.4375)"/>
<path d="M0 0 C0.98484375 0.00902344 1.9696875 0.01804687 2.984375 0.02734375 C4.10585937 0.04474609 4.10585937 0.04474609 5.25 0.0625 C5.16435791 0.85720703 5.07871582 1.65191406 4.99047852 2.47070312 C4.59419237 6.16758999 4.20333355 9.86503287 3.8125 13.5625 C3.61043945 15.43615234 3.61043945 15.43615234 3.40429688 17.34765625 C1.67221292 33.82357683 1.0784752 50.14226657 1.046875 66.69921875 C1.04404762 67.72060251 1.04122025 68.74198627 1.03830719 69.79432106 C1.02339409 75.22787344 1.01412185 80.66139993 1.00976562 86.0949707 C1.00543324 90.47982342 0.99173647 94.86447354 0.96875 99.24926758 C0.84999653 122.39205125 1.04520459 145.43461032 2.62890625 168.53125 C2.72182827 169.8888849 2.72182827 169.8888849 2.8166275 171.27394676 C4.03343518 188.6026358 5.9639026 205.84429203 8.25 223.0625 C3.4565034 225.4592483 -4.62973659 223.22241853 -9.75 222.0625 C-22.71052754 217.36412694 -29.65412232 210.23778002 -35.75 198.0625 C-38.0055917 192.37448615 -37.96838455 187.09234016 -37.75 181.0625 C-38.35585938 181.10890625 -38.96171875 181.1553125 -39.5859375 181.203125 C-48.14400204 181.57178009 -55.23073022 179.70779623 -61.6875 173.875 C-66.26663008 169.43088113 -67.86174035 162.59988082 -68.13095093 156.39624023 C-68.14850617 154.72128167 -68.15013392 153.04610168 -68.13818359 151.37109375 C-68.14344055 150.44789337 -68.14869751 149.52469299 -68.15411377 148.57351685 C-68.16722151 145.54883456 -68.15860847 142.52468681 -68.1484375 139.5 C-68.15046088 137.38207906 -68.15337452 135.2641588 -68.15713501 133.14624023 C-68.16154588 128.71819391 -68.15516715 124.29032975 -68.14111328 119.86230469 C-68.1240223 114.20335894 -68.13387011 108.54484014 -68.15183067 102.88591003 C-68.16270192 98.5157147 -68.15920684 94.14561959 -68.1514473 89.77542114 C-68.14945453 87.68954416 -68.15187192 85.60365789 -68.15888596 83.51779175 C-68.16655551 80.59625343 -68.15481935 77.67539434 -68.13818359 74.75390625 C-68.14729263 73.47714523 -68.14729263 73.47714523 -68.15658569 72.17459106 C-68.08749443 65.58254418 -66.91290065 59.39577659 -63.27734375 53.79296875 C-57.18426323 47.8795368 -50.68406762 44.84881853 -42.125 44.8125 C-40.66564104 44.87536469 -39.20644618 44.95094242 -37.75 45.0625 C-37.79640625 44.17949219 -37.8428125 43.29648437 -37.890625 42.38671875 C-38.25234274 30.35960385 -35.97864365 21.0530551 -27.75 12.0625 C-20.23191541 4.15554897 -10.94922797 -0.13034795 0 0 Z " fill="#229EDC" transform="translate(67.75,298.9375)"/>
<path d="M0 0 C10.37399285 -0.82624722 20.08584443 1.58485328 28.19140625 8.30859375 C37.26804683 16.79711507 41.69430484 25.34721193 42.5625 37.75 C42.64628906 38.92046875 42.73007812 40.0909375 42.81640625 41.296875 C42.90728516 42.63492188 42.90728516 42.63492188 43 44 C43.845625 44.09796875 44.69125 44.1959375 45.5625 44.296875 C55.33969748 45.5856874 62.12480074 47.24475501 68.67578125 54.828125 C72.6274643 61.30935148 73.44075959 67.17975041 73.38818359 74.59375 C73.39344055 75.51841064 73.39869751 76.44307129 73.40411377 77.39575195 C73.41724093 80.43067676 73.40860148 83.46507051 73.3984375 86.5 C73.40046032 88.62174581 73.4033735 90.74349094 73.40713501 92.86523438 C73.41154851 97.30345302 73.40515862 101.74149004 73.39111328 106.1796875 C73.37402214 111.85557514 73.38386853 117.53103713 73.40183067 123.20690918 C73.41269478 127.58564433 73.40921009 131.96427933 73.4014473 136.34301758 C73.39945256 138.43530325 73.40187893 140.52759815 73.40888596 142.61987305 C73.41654365 145.54890881 73.40483571 148.4772646 73.38818359 151.40625 C73.39425629 152.26259033 73.40032898 153.11893066 73.40658569 154.0012207 C73.32469738 161.81492571 71.32153012 168.55381519 65.921875 174.39453125 C59.30629137 179.92096391 51.44432264 181.79850857 43 182 C42.92523437 182.72703125 42.85046875 183.4540625 42.7734375 184.203125 C41.27788903 195.6396721 36.90413282 206.31350515 27.8515625 213.76953125 C18.06161285 221.10427271 9.18882697 223.76579018 -3 223 C-2.81824219 221.76894531 -2.63648438 220.53789063 -2.44921875 219.26953125 C-0.67749928 206.77355815 0.59018864 194.26213494 1.625 181.6875 C1.68716705 180.95431549 1.74933411 180.22113098 1.81338501 179.46572876 C4.01694968 153.26243087 4.20245558 127.02654911 4.1875 100.75 C4.18755616 99.10164388 4.18761723 97.45328776 4.18768311 95.80493164 C4.18219644 77.35944872 4.16537742 58.92213473 3.125 40.5 C3.08579437 39.79677612 3.04658875 39.09355225 3.00619507 38.36901855 C2.51492364 29.95364373 1.68174631 21.59014733 0.65408325 13.22546387 C0.12424284 8.77942544 -0.08758776 4.47801633 0 0 Z " fill="#219EDC" transform="translate(779,299)"/>
<path d="M0 0 C2.75 2.4375 2.75 2.4375 5 5 C5.47953125 5.46535156 5.9590625 5.93070313 6.453125 6.41015625 C13.88330092 14.04672595 16.47575194 23.71089532 16.5625 34.125 C16.36330156 46.0619663 12.4657125 56.2198871 4.15234375 64.9375 C-0.89505755 69.59355209 -0.89505755 69.59355209 -4.16629028 70.79685974 C-6.91360776 71.91808103 -8.82685499 72.96497488 -11 75 C-12.35266195 79.36652851 -12.18745094 83.63495881 -12.09765625 88.17578125 C-12.10711777 89.45607712 -12.11657928 90.73637299 -12.12632751 92.0554657 C-12.15089516 95.44786749 -12.12190332 98.83775163 -12.08154297 102.22991943 C-12.04985226 105.6956841 -12.06909626 109.16113092 -12.08398438 112.62695312 C-12.10283788 119.41864895 -12.07078126 126.20867883 -12 133 C-10.35439087 132.97945557 -10.35439087 132.97945557 -8.67553711 132.95849609 C1.69489901 133.07559833 9.66265223 138.85123257 16.875 145.75 C17.926875 146.86375 17.926875 146.86375 19 148 C19.66 148.66 20.32 149.32 21 150 C21 151.65 21 153.3 21 155 C-11.34 155 -43.68 155 -77 155 C-75.09199756 147.36799022 -68.96405525 142.39368936 -62.46484375 138.31640625 C-56.19722338 134.96904006 -49.99050508 133.16508418 -43 132 C-42.67 112.86 -42.34 93.72 -42 74 C-43.65 73.67 -45.3 73.34 -47 73 C-58.00423421 66.89636527 -64.61400575 58.67181942 -69 47 C-72.26015242 35.47932625 -70.73384303 22.37685739 -65 12 C-58.11418919 0.93908218 -47.69158694 -5.6824466 -35.125 -8.6875 C-22.06971488 -9.99302851 -10.76233317 -7.81810894 0 0 Z " fill="#229FDD" transform="translate(453,9)"/>
<path d="M0 0 C1.50937414 1.15451323 3.01093704 2.31940582 4.5 3.5 C5.386875 4.098125 6.27375 4.69625 7.1875 5.3125 C16.39903122 14.02611061 21.41131009 25.98844055 22.5 38.5 C22.65906384 52.9748097 17.71516605 66.16201108 7.75 76.75 C-2.36690836 86.27066471 -15.24179913 90.97984915 -29.14453125 90.7109375 C-43.72757626 89.40499317 -55.61666395 83.23444935 -65.5 72.5 C-73.26730834 62.17699665 -77.54266104 49.4174118 -76.5 36.5 C-74.38977294 22.39009194 -68.30381354 10.44675912 -57 1.52734375 C-40.06676879 -10.0650282 -17.31519843 -11.8579783 0 0 Z " fill="#485A6E" transform="translate(302.5,348.5)"/>
<path d="M0 0 C10.0114767 7.85040904 16.75929633 18.691344 19.0625 31.25 C20.65550614 46.64319192 17.75232153 59.89223525 8.0625 72.25 C-1.4539389 82.53415162 -12.77018219 88.10664208 -26.72265625 89.53515625 C-40.54833038 89.99269654 -52.55275597 84.93376685 -63.125 76.25 C-72.47078642 67.36555017 -77.7131375 56.04885914 -78.9375 43.25 C-79.26847596 29.36405397 -75.17356153 16.23551076 -65.75 5.8359375 C-47.48206114 -11.67083724 -20.9709402 -14.24656263 0 0 Z " fill="#485A6E" transform="translate(604.9375,349.75)"/>
<path d="M0 0 C4.98246923 4.48516062 8.9044547 10.02191388 12.7734375 15.46875 C13.94052329 17.14463391 13.94052329 17.14463391 16 18 C16 18.66 16 19.32 16 20 C16.56589844 20.26167969 17.13179688 20.52335937 17.71484375 20.79296875 C20.19362873 22.10227569 22.31288857 23.64104242 24.5625 25.3125 C38.4775198 35.0834847 54.70678475 39.00487836 71.57421875 36.4609375 C92.36062314 32.37107199 106.74290754 21.80611707 118.7890625 4.671875 C122.16663188 0.59014805 124.67743853 -0.85304873 129.9375 -1.4375 C134.20931341 -1.25984424 136.76736716 0.1522044 140 3 C142.42663663 6.69270791 142.27920748 10.2481053 141.6484375 14.48828125 C138.94887912 24.94500437 131.40397945 32.57516427 124 40 C123.29101562 40.7321875 122.58203125 41.464375 121.8515625 42.21875 C111.43801488 52.27320977 97.81076373 58.26614531 84 62 C83.33556885 62.18473877 82.6711377 62.36947754 81.98657227 62.55981445 C75.59613226 64.18101139 69.38318463 64.34689888 62.8125 64.3125 C61.70551758 64.30758545 60.59853516 64.3026709 59.45800781 64.29760742 C35.53137035 63.95544738 13.62043463 54.06663029 -3.578125 37.51953125 C-10.46398854 30.15353096 -18.2463584 20.90838131 -19.375 10.5625 C-18.91536001 6.19592007 -17.90664572 4.2792926 -15 1 C-9.85780487 -2.16442777 -5.38980529 -2.94738875 0 0 Z " fill="#485A6E" transform="translate(363,455)"/>
<path d="M0 0 C0 0.66 0 1.32 0 2 C-1.46875 3.2265625 -1.46875 3.2265625 -3.5 4.625 C-8.14483561 7.97591712 -12.05405637 11.86515481 -16 16 C-16.99 15.67 -17.98 15.34 -19 15 C-6.76666667 0 -6.76666667 0 0 0 Z " fill="#4E6073" transform="translate(254,346)"/>
<path d="M0 0 C0.66 0.33 1.32 0.66 2 1 C0.84826645 3.46800047 -0.04783565 5.04783565 -2 7 C-2.99 6.67 -3.98 6.34 -5 6 C-3.35 4.02 -1.7 2.04 0 0 Z " fill="#4DB8E9" transform="translate(107,207)"/>
</svg>
