<?xml version="1.0" encoding="UTF-8"?>
<svg version="1.1" xmlns="http://www.w3.org/2000/svg" width="238" height="272">
<path d="M0 0 C6.65679528 3.72919945 10.17119651 8.02427561 12.4921875 15.26953125 C14.29548959 23.22854975 13.23799547 29.33650906 9.625 36.5625 C26.785 36.5625 43.945 36.5625 61.625 36.5625 C61.625 108.5025 61.625 180.4425 61.625 254.5625 C44.795 254.5625 27.965 254.5625 10.625 254.5625 C9.965 255.8825 9.305 257.2025 8.625 258.5625 C3.76622606 260.82108276 -1.37903116 261.14696434 -6.64990234 261.6315918 C-8.02182487 261.76611252 -8.02182487 261.76611252 -9.42146301 261.90335083 C-12.43397499 262.19668662 -15.44735499 262.47960935 -18.4609375 262.76171875 C-20.56315571 262.96267036 -22.66533826 263.16399535 -24.76748657 263.36567688 C-29.17007931 263.78634431 -33.57313226 264.20172054 -37.9765625 264.61352539 C-43.60859826 265.14076337 -49.23915687 265.6822571 -54.86943626 266.22789288 C-59.20981418 266.64672394 -63.55093842 267.05735929 -67.89232254 267.46561623 C-69.96811736 267.66191949 -72.04366243 267.86088324 -74.11893845 268.06259727 C-77.02567636 268.3440033 -79.93325352 268.61418847 -82.84130859 268.8815918 C-83.69144028 268.96620163 -84.54157196 269.05081146 -85.41746521 269.13798523 C-92.53855375 269.77277194 -99.40661275 270.05128706 -105.375 265.5625 C-107.19252745 263.92539863 -108.96294873 262.23477084 -110.6875 260.5 C-111.57050781 259.62214844 -112.45351562 258.74429687 -113.36328125 257.83984375 C-115.375 255.5625 -115.375 255.5625 -115.375 253.5625 C-116.365 253.2325 -117.355 252.9025 -118.375 252.5625 C-118.375 251.9025 -118.375 251.2425 -118.375 250.5625 C-119.014375 250.294375 -119.65375 250.02625 -120.3125 249.75 C-122.375 248.5625 -122.375 248.5625 -123.375 245.5625 C-124.2103125 245.1603125 -124.2103125 245.1603125 -125.0625 244.75 C-128.41264163 243.029657 -130.99925507 240.47674712 -133.375 237.5625 C-133.375 236.9025 -133.375 236.2425 -133.375 235.5625 C-134.365 235.2325 -135.355 234.9025 -136.375 234.5625 C-136.375 233.9025 -136.375 233.2425 -136.375 232.5625 C-137.014375 232.294375 -137.65375 232.02625 -138.3125 231.75 C-140.375 230.5625 -140.375 230.5625 -141.375 227.5625 C-142.2103125 227.1603125 -142.2103125 227.1603125 -143.0625 226.75 C-146.41264163 225.029657 -148.99925507 222.47674712 -151.375 219.5625 C-151.375 218.9025 -151.375 218.2425 -151.375 217.5625 C-152.365 217.2325 -153.355 216.9025 -154.375 216.5625 C-154.375 215.9025 -154.375 215.2425 -154.375 214.5625 C-155.014375 214.294375 -155.65375 214.02625 -156.3125 213.75 C-158.375 212.5625 -158.375 212.5625 -159.375 209.5625 C-160.035 209.2325 -160.695 208.9025 -161.375 208.5625 C-163.375 207.5625 -163.375 207.5625 -164.375 204.5625 C-165.035 204.2325 -165.695 203.9025 -166.375 203.5625 C-168.375 202.5625 -168.375 202.5625 -169.375 199.5625 C-170.365 199.2325 -171.355 198.9025 -172.375 198.5625 C-172.375 197.9025 -172.375 197.2425 -172.375 196.5625 C-173.035 196.5625 -173.695 196.5625 -174.375 196.5625 C-176.68666428 193.29897396 -176.42381622 190.63130109 -175.87670898 186.77755737 C-174.99970108 182.90554616 -173.1494288 179.56268936 -171.375 176.03515625 C-150.60053417 131.0580496 -155.69783165 85.65720518 -156.375 36.5625 C-116.115 36.2325 -75.855 35.9025 -34.375 35.5625 C-35.035 34.5725 -35.695 33.5825 -36.375 32.5625 C-38.69564363 24.67231167 -37.65977465 16.51284508 -34.25 9.125 C-33.96125 8.609375 -33.6725 8.09375 -33.375 7.5625 C-32.715 7.5625 -32.055 7.5625 -31.375 7.5625 C-31.12621094 6.95792969 -30.87742188 6.35335938 -30.62109375 5.73046875 C-29.17702545 3.21806152 -27.91364187 2.33670758 -25.4375 0.875 C-24.74785156 0.45863281 -24.05820313 0.04226562 -23.34765625 -0.38671875 C-15.9399351 -4.33261378 -7.41890331 -3.35286267 0 0 Z " fill="#211265" transform="translate(176.375,2.4375)"/>
<path d="M0 0 C6.65679528 3.72919945 10.17119651 8.02427561 12.4921875 15.26953125 C14.29548959 23.22854975 13.23799547 29.33650906 9.625 36.5625 C26.785 36.5625 43.945 36.5625 61.625 36.5625 C61.625 108.5025 61.625 180.4425 61.625 254.5625 C44.795 254.5625 27.965 254.5625 10.625 254.5625 C14.00102947 243.30906842 14.00102947 243.30906842 15.82641602 238.07250977 C16.23436905 236.89910538 16.64232208 235.72570099 17.06263733 234.51673889 C17.49700607 233.27500412 17.93137482 232.03326935 18.37890625 230.75390625 C18.84402358 229.42044549 19.30902227 228.08694335 19.77391052 226.75340271 C20.74830112 223.96001351 21.72429339 221.16719053 22.70141602 218.37475586 C23.92244676 214.88481052 25.13928507 211.39342176 26.35482216 207.90155983 C27.31023325 205.15859754 28.26795796 202.41644773 29.22648239 199.67457199 C29.70257972 198.31227867 30.17812879 196.94979362 30.65312576 195.58711624 C33.20601373 188.26995471 35.81745561 180.98479094 38.60498047 173.75341797 C39.07572495 172.52292221 39.54646942 171.29242645 40.03147888 170.02464294 C40.91979997 167.71789137 41.82155105 165.41624891 42.739151 163.12098694 C43.33221291 161.57984474 43.33221291 161.57984474 43.93725586 160.00756836 C44.2886412 159.12032578 44.64002655 158.23308319 45.00205994 157.31895447 C45.83746579 153.62235773 45.61953957 151.23069699 44.625 147.5625 C42.97710527 145.1109986 40.97207147 143.13854306 38.85180664 141.09228516 C38.25015182 140.48814789 37.64849701 139.88401062 37.02861023 139.26156616 C35.04483438 137.27687519 33.04057838 135.31435868 31.03515625 133.3515625 C29.65008579 131.97514975 28.26626777 130.59747563 26.88365173 129.21859741 C23.24640548 125.59855915 19.59106713 121.9973229 15.93206787 118.39929199 C12.94205149 115.45293676 9.96514546 112.49352946 6.98883915 109.53333473 C3.44603731 106.0101102 -0.10222787 102.49241564 -3.65234375 98.9765625 C-4.33201643 98.30331562 -5.01168911 97.63006874 -5.71195793 96.93642044 C-7.6292079 95.04009187 -9.55007401 93.14751652 -11.47241211 91.25634766 C-12.3288884 90.40861786 -12.3288884 90.40861786 -13.20266724 89.54376221 C-16.02988064 86.70786101 -16.02988064 86.70786101 -19.375 84.5625 C-19.86661725 85.87038739 -20.34241758 87.18421907 -20.8125 88.5 C-21.07933594 89.23089844 -21.34617188 89.96179688 -21.62109375 90.71484375 C-21.86988281 91.65457031 -22.11867187 92.59429687 -22.375 93.5625 C-22.57947754 94.18544952 -22.78395508 94.80839905 -22.99462891 95.45022583 C-23.60821815 98.04279482 -23.76615796 99.91418964 -23.375 102.5625 C-20.81896725 106.51715902 -17.48652336 109.56656693 -14.06640625 112.77734375 C-13.09859656 113.72139782 -12.13312693 114.66785625 -11.16990662 115.61659241 C-8.63787069 118.0992865 -6.0781652 120.55131139 -3.51049805 122.99707031 C0.11242036 126.45860775 3.69598057 129.96095958 7.28419495 133.45838928 C9.19427469 135.31991452 11.11510563 137.16770141 13.0433197 139.01072693 C13.90743973 139.84241898 14.77155975 140.67411102 15.66186523 141.53100586 C16.81222511 142.62946083 16.81222511 142.62946083 17.98582458 143.75010681 C19.625 145.5625 19.625 145.5625 19.625 147.5625 C-24.11920469 152.67144008 -24.11920469 152.67144008 -38.4375 153.875 C-39.75814453 153.98884033 -39.75814453 153.98884033 -41.10546875 154.10498047 C-43.52838418 154.29533883 -45.94765353 154.44203494 -48.375 154.5625 C-49.80416748 154.64346924 -49.80416748 154.64346924 -51.26220703 154.72607422 C-58.59678808 154.97116994 -58.59678808 154.97116994 -62.171875 153.09375 C-62.81640625 152.4234375 -63.4609375 151.753125 -64.125 151.0625 C-64.85589844 150.32515625 -65.58679688 149.5878125 -66.33984375 148.828125 C-68.70966423 146.18993714 -71.06563349 143.54796274 -73.35546875 140.83984375 C-77.29759583 136.39446641 -81.585974 132.2733214 -85.81689453 128.10473633 C-88.01146146 125.93252083 -90.19158147 123.74591853 -92.375 121.5625 C-94.14148677 119.80684853 -95.90843427 118.05166054 -97.67578125 116.296875 C-99.16810543 114.8119054 -100.65996186 113.32646765 -102.15161133 111.84082031 C-103.18361619 110.81390084 -104.21650808 109.78787208 -105.25024414 108.76269531 C-106.74858173 107.2764049 -108.24373817 105.78697967 -109.73828125 104.296875 C-110.62813721 103.41225586 -111.51799316 102.52763672 -112.43481445 101.61621094 C-114.375 99.5625 -114.375 99.5625 -114.375 98.5625 C-81.25728474 94.55477226 -81.25728474 94.55477226 -67.8125 93.3125 C-66.97187012 93.23273926 -66.13124023 93.15297852 -65.26513672 93.07080078 C-59.94986611 92.60139181 -54.71095466 92.49853251 -49.375 92.5625 C-49.24077637 91.94890625 -49.10655273 91.3353125 -48.96826172 90.703125 C-47.8587761 85.63119072 -46.63840851 80.59814958 -45.375 75.5625 C-67.7422585 77.50367968 -90.09123872 79.47694143 -112.37255859 82.25488281 C-113.6405127 82.41182617 -114.9084668 82.56876953 -116.21484375 82.73046875 C-117.41093262 82.8804834 -118.60702148 83.03049805 -119.83935547 83.18505859 C-124.44159205 83.67636213 -129.04455531 83.88113007 -133.67016602 84.0168457 C-137.06329086 84.70135099 -138.24116792 85.88735258 -140.375 88.5625 C-141.56908918 91.46877111 -141.56908918 91.46877111 -142.375 94.6875 C-143.49201154 98.5905712 -144.61880115 102.38014871 -146.1875 106.125 C-149.64737279 114.44814779 -152.43438753 123.04563336 -155.375 131.5625 C-155.705 131.5625 -156.035 131.5625 -156.375 131.5625 C-156.375 100.2125 -156.375 68.8625 -156.375 36.5625 C-116.115 36.2325 -75.855 35.9025 -34.375 35.5625 C-35.035 34.5725 -35.695 33.5825 -36.375 32.5625 C-38.69564363 24.67231167 -37.65977465 16.51284508 -34.25 9.125 C-33.96125 8.609375 -33.6725 8.09375 -33.375 7.5625 C-32.715 7.5625 -32.055 7.5625 -31.375 7.5625 C-31.12621094 6.95792969 -30.87742187 6.35335938 -30.62109375 5.73046875 C-29.17702545 3.21806152 -27.91364187 2.33670758 -25.4375 0.875 C-24.74785156 0.45863281 -24.05820313 0.04226562 -23.34765625 -0.38671875 C-15.9399351 -4.33261378 -7.41890331 -3.35286267 0 0 Z " fill="#F9F9FB" transform="translate(176.375,2.4375)"/>
<path d="M0 0 C14.85 0 29.7 0 45 0 C45 71.94 45 143.88 45 218 C28.17 218 11.34 218 -6 218 C-2.62397053 206.74656842 -2.62397053 206.74656842 -0.79858398 201.51000977 C-0.39063095 200.33660538 0.01732208 199.16320099 0.43763733 197.95423889 C0.87200607 196.71250412 1.30637482 195.47076935 1.75390625 194.19140625 C2.21902358 192.85794549 2.68402227 191.52444335 3.14891052 190.19090271 C4.12330112 187.39751351 5.09929339 184.60469053 6.07641602 181.81225586 C7.29744676 178.32231052 8.51428507 174.83092176 9.72982216 171.33905983 C10.68523325 168.59609754 11.64295796 165.85394773 12.60148239 163.11207199 C13.07757972 161.74977867 13.55312879 160.38729362 14.02812576 159.02461624 C16.58101373 151.70745471 19.19245561 144.42229094 21.97998047 137.19091797 C22.68609718 135.34517433 22.68609718 135.34517433 23.40647888 133.46214294 C24.29479997 131.15539137 25.19655105 128.85374891 26.114151 126.55848694 C26.5095256 125.53105881 26.90490021 124.50363068 27.31225586 123.44506836 C27.83933388 122.11420448 27.83933388 122.11420448 28.37705994 120.75645447 C29.21246579 117.05985773 28.99453957 114.66819699 28 111 C26.35210527 108.5484986 24.34707147 106.57604306 22.22680664 104.52978516 C21.62515182 103.92564789 21.02349701 103.32151062 20.40361023 102.69906616 C18.41983438 100.71437519 16.41557838 98.75185868 14.41015625 96.7890625 C13.02508579 95.41264975 11.64126777 94.03497563 10.25865173 92.65609741 C6.62140548 89.03605915 2.96606713 85.4348229 -0.69293213 81.83679199 C-3.68294851 78.89043676 -6.65985454 75.93102946 -9.63616085 72.97083473 C-13.17896269 69.4476102 -16.72722787 65.92991564 -20.27734375 62.4140625 C-20.95701643 61.74081562 -21.63668911 61.06756874 -22.33695793 60.37392044 C-24.2542079 58.47759187 -26.17507401 56.58501652 -28.09741211 54.69384766 C-28.6683963 54.12869446 -29.23938049 53.56354126 -29.82766724 52.98126221 C-32.65488064 50.14536101 -32.65488064 50.14536101 -36 48 C-34.61565297 42.48358682 -33.1418925 37.12591247 -30.9375 31.875 C-29.02606722 27.30513773 -27.94055332 22.85952547 -27 18 C-25.96552734 17.77957031 -25.96552734 17.77957031 -24.91015625 17.5546875 C-12.90255058 14.68867462 -7.85029791 10.09324017 0 0 Z " fill="#8C3EFE" transform="translate(193,39)"/>
<path d="M0 0 C4.02435886 1.60747361 6.70708434 4.45158696 9.68359375 7.48828125 C10.22097672 8.02849411 10.75835968 8.56870697 11.31202698 9.12528992 C13.02528546 10.84970706 14.73146776 12.58093629 16.4375 14.3125 C17.58091562 15.46595552 18.72479125 16.61895523 19.86914062 17.77148438 C21.98260721 19.90123713 24.09331074 22.03364835 26.20092773 24.16918945 C28.79131551 26.78894927 31.39243836 29.39734851 34 32 C43.84375 41.84375 43.84375 41.84375 45.44921875 43.45703125 C46.46226785 44.46497683 47.48538779 45.46292768 48.51953125 46.44921875 C49.71479643 47.59734672 50.86251323 48.79460357 52 50 C52 50.66 52 51.32 52 52 C53.485 52.495 53.485 52.495 55 53 C57.21070261 56.31605392 57.25989897 57.70806176 56.66015625 61.5546875 C55.88940913 64.4096443 54.73785053 66.84260791 53.4375 69.5 C49.86183034 76.84950896 47.38959493 84.47325273 44.89233398 92.24609375 C43.12490414 97.72544005 41.20340949 103.06775132 39.02197266 108.39477539 C37.05878811 113.39934831 35.42529423 118.51845501 33.75 123.625 C33.38648438 124.72457031 33.02296875 125.82414062 32.6484375 126.95703125 C31.76284378 129.63711752 30.88008793 132.31810177 30 135 C26.13932618 133.41476958 23.48789164 130.80347889 20.57299805 127.91113281 C20.04411484 127.39378571 19.51523163 126.8764386 18.97032166 126.34341431 C17.22838768 124.63570219 15.49437149 122.92025052 13.76171875 121.203125 C12.87171142 120.32347202 12.87171142 120.32347202 11.96372414 119.42604828 C8.82744137 116.32555337 5.69731306 113.21899402 2.57202148 110.10742188 C-0.65906831 106.89292474 -3.91057041 103.69992832 -7.16720295 100.51134109 C-9.66752645 98.05572948 -12.15217886 95.58471022 -14.63280296 93.10921478 C-15.82512251 91.92480102 -17.02332569 90.74627999 -18.22741127 89.57382965 C-19.90849336 87.93405769 -21.56619259 86.2736883 -23.2199707 84.60644531 C-23.72222168 84.12621918 -24.22447266 83.64599304 -24.74194336 83.1512146 C-26.09712219 81.75811768 -26.09712219 81.75811768 -28 79 C-27.89842224 75.95941162 -27.89842224 75.95941162 -27 73 C-26.75844177 72.17910889 -26.51688354 71.35821777 -26.26800537 70.51245117 C-25.84095306 69.29005737 -25.84095306 69.29005737 -25.40527344 68.04296875 C-24.91906525 66.63990479 -24.91906525 66.63990479 -24.42303467 65.20849609 C-24.07202698 64.21156738 -23.72101929 63.21463867 -23.359375 62.1875 C-22.99531555 61.14158691 -22.6312561 60.09567383 -22.25616455 59.01806641 C-21.09196625 55.67711259 -19.92102879 52.33856499 -18.75 49 C-17.97743263 46.78530688 -17.20529292 44.57046454 -16.43359375 42.35546875 C-14.29866741 36.23359007 -12.15275484 30.11563034 -10 24 C-9.72522827 23.21887848 -9.45045654 22.43775696 -9.1673584 21.63296509 C-2.38643901 2.38643901 -2.38643901 2.38643901 0 0 Z " fill="#FAFAFB" transform="translate(47,112)"/>
<path d="M0 0 C-0.60521484 1.81177734 -0.60521484 1.81177734 -1.22265625 3.66015625 C-2.53042461 7.5819273 -3.82730322 11.50719062 -5.12109375 15.43359375 C-5.89317362 17.76824754 -6.66531014 20.10288259 -7.4375 22.4375 C-7.81970703 23.60087891 -8.20191406 24.76425781 -8.59570312 25.96289062 C-10.52401994 31.78057989 -12.55328887 37.50471234 -14.87719727 43.17504883 C-17.49561372 49.76293681 -19.83973905 56.45880861 -22.25 63.125 C-22.80974503 64.6693255 -23.36963973 66.21359676 -23.9296875 67.7578125 C-25.28818348 71.50458568 -26.64465619 75.25208548 -28 79 C-46.23479057 81.16368557 -64.46232879 82.70895713 -82.78295898 83.90942383 C-91.623363 84.50343808 -100.29237173 85.26263963 -109 87 C-108.37712367 82.88032494 -107.43613276 79.26926376 -105.9140625 75.3828125 C-103.96720063 70.30765976 -102.26588209 65.14029045 -100.5 60 C-93.92419085 40.85853574 -93.92419085 40.85853574 -91 34.4375 C-90.32967336 32.95998835 -89.66346698 31.48060462 -89 30 C-88.51917969 28.9275 -88.03835937 27.855 -87.54296875 26.75 C-85.84429891 22.77271798 -84.56515208 18.69784953 -83.3125 14.5625 C-82.90024926 13.21337912 -82.48771431 11.86434506 -82.07495117 10.51538086 C-81.72021729 9.35530518 -81.3654834 8.19522949 -81 7 C-79.85281494 6.8860791 -78.70562988 6.7721582 -77.52368164 6.65478516 C-68.9104213 5.79736162 -60.29827845 4.93053879 -51.68832397 4.04046631 C-47.37026221 3.59471971 -43.05173194 3.15360784 -38.7331543 2.71289062 C-36.51974164 2.48595803 -34.30652676 2.25708879 -32.09350586 2.02636719 C-28.83238057 1.68684098 -25.57058908 1.35448713 -22.30859375 1.0234375 C-20.84733315 0.86879532 -20.84733315 0.86879532 -19.35655212 0.71102905 C-12.88402545 0.06320164 -6.50318947 -0.11648742 0 0 Z " fill="#FCFCFD" transform="translate(201,167)"/>
<path d="M0 0 C28.74826131 -0.36147302 28.74826131 -0.36147302 42.94779778 -0.45228481 C50.62797987 -0.50216145 58.30728239 -0.5654797 65.98681641 -0.67895508 C72.71721365 -0.77835815 79.44646241 -0.83054995 86.17762375 -0.85389519 C88.74619918 -0.8705322 91.31472215 -0.90302148 93.88289261 -0.95157051 C97.47987873 -1.01686741 101.07292726 -1.02590408 104.67041016 -1.02172852 C105.73352417 -1.054086 106.79663818 -1.08644348 107.89196777 -1.11978149 C114.91588693 -1.03149472 114.91588693 -1.03149472 118.02921677 1.93072701 C120.59518251 5.57786302 122.4098318 8.47215734 122.0546875 13.02734375 C121.61230469 14.99951172 121.61230469 14.99951172 121 17 C120.69304199 18.04244873 120.69304199 18.04244873 120.37988281 19.10595703 C119.6859785 21.28319317 118.91987526 23.42021424 118.125 25.5625 C117.86847656 26.27857422 117.61195313 26.99464844 117.34765625 27.73242188 C115.71950402 32.22824927 113.92153428 36.62189344 112 41 C111.67 40.34 111.34 39.68 111 39 C88.6327415 40.94117968 66.28376128 42.91444143 44.00244141 45.69238281 C42.10051025 45.92779785 42.10051025 45.92779785 40.16015625 46.16796875 C38.96406738 46.3179834 37.76797852 46.46799805 36.53564453 46.62255859 C31.93340795 47.11386213 27.33044469 47.31863007 22.70483398 47.4543457 C19.31170914 48.13885099 18.13383208 49.32485258 16 52 C14.80591082 54.90627111 14.80591082 54.90627111 14 58.125 C12.88298846 62.0280712 11.75619885 65.81764871 10.1875 69.5625 C6.72762721 77.88564779 3.94061247 86.48313336 1 95 C0.67 95 0.34 95 0 95 C0 63.65 0 32.3 0 0 Z " fill="#8C3EFD" transform="translate(20,39)"/>
<path d="M0 0 C6.65679528 3.72919945 10.17119651 8.02427561 12.4921875 15.26953125 C14.02859544 22.050591 13.76724859 28.27800282 10.625 34.5625 C9.965 34.5625 9.305 34.5625 8.625 34.5625 C8.56957031 35.31015625 8.51414063 36.0578125 8.45703125 36.828125 C7.32233324 40.5571795 5.61325314 41.33641997 2.3125 43.3125 C1.34699219 43.90546875 0.38148438 44.4984375 -0.61328125 45.109375 C-6.91024704 48.42262998 -14.20767535 48.76190621 -21.03515625 46.796875 C-27.88349685 43.79080278 -32.55079532 38.95281592 -36.375 32.5625 C-38.72864968 24.06320948 -37.68997649 15.26781516 -33.375 7.5625 C-32.715 7.5625 -32.055 7.5625 -31.375 7.5625 C-31.12621094 6.95792969 -30.87742188 6.35335938 -30.62109375 5.73046875 C-29.17702545 3.21806152 -27.91364187 2.33670758 -25.4375 0.875 C-24.40302734 0.25044922 -24.40302734 0.25044922 -23.34765625 -0.38671875 C-15.9399351 -4.33261378 -7.41890331 -3.35286267 0 0 Z " fill="#271868" transform="translate(176.375,2.4375)"/>
<path d="M0 0 C4 1.33333333 8 2.66666667 12 4 C10.31407942 12.04054433 8.34833718 19.87526598 5.1796875 27.47265625 C2.6556749 33.71788047 0.58652009 40.09801516 -1.5 46.5 C-3.86046762 53.74252693 -6.25136083 60.90976197 -9.20996094 67.93310547 C-10.2216097 70.5797737 -10.70399614 73.18796337 -11 76 C-15.97306516 75.50269348 -19.63799813 74.44697666 -24 72 C-23.03566673 65.92470037 -21.49907961 60.29864673 -19.40234375 54.5234375 C-18.86045207 53.00971845 -18.319141 51.49579147 -17.77832031 49.98168945 C-17.49017456 49.17696198 -17.20202881 48.3722345 -16.90515137 47.54312134 C-15.30186208 43.03850548 -13.73666166 38.52066081 -12.16796875 34.00390625 C-11.50853076 32.10870057 -10.84902514 30.21351842 -10.18945312 28.31835938 C-9.17720049 25.40866038 -8.16537898 22.49881383 -7.15454102 19.58862305 C-6.16022538 16.72662878 -5.16423896 13.86522061 -4.16796875 11.00390625 C-3.86384567 10.12698624 -3.5597226 9.25006622 -3.24638367 8.34657288 C-2.96551407 7.54070236 -2.68464447 6.73483185 -2.39526367 5.90454102 C-2.02603035 4.8422805 -2.02603035 4.8422805 -1.64933777 3.75856018 C-1 2 -1 2 0 0 Z " fill="#251567" transform="translate(148,51)"/>
<path d="M0 0 C3.45658479 2.04573386 4.7785359 3.66780385 7 7 C7.76394354 13.65722231 7.76394354 13.65722231 5.984375 16.78515625 C2.77330738 20.72161566 0.28464277 22.85258198 -4.8125 23.4375 C-9.68289567 23.32089753 -11.68980687 21.46782137 -15 18 C-17.55550471 14.51522085 -17.57216273 11.21970013 -17 7 C-13.42809809 -0.49370441 -7.75488621 -1.51314853 0 0 Z " fill="#F7F7F9" transform="translate(169,14)"/>
<path d="M0 0 C2.8100346 1.79363911 4.50940468 3.01880935 6 6 C6.04022391 8.3329866 6.04320247 10.66706666 6 13 C5.34 13 4.68 13 4 13 C3.7525 13.61875 3.505 14.2375 3.25 14.875 C1.72778828 17.46275992 0.83222025 18.05592658 -2 19 C-5.25 19.125 -5.25 19.125 -8 19 C-8 18.34 -8 17.68 -8 17 C-8.99 16.67 -9.98 16.34 -11 16 C-11 15.34 -11 14.68 -11 14 C-11.66 14 -12.32 14 -13 14 C-14.47164835 6.7643956 -14.47164835 6.7643956 -12.1875 3.0625 C-8.48992769 -0.42378246 -4.93948787 -0.70969653 0 0 Z " fill="#271868" transform="translate(82,178)"/>
<path d="M0 0 C2.87029869 1.79393668 4.49131638 2.98263276 6 6 C6.04022391 8.3329866 6.04320247 10.66706666 6 13 C5.34 13 4.68 13 4 13 C3.7525 13.61875 3.505 14.2375 3.25 14.875 C1.7091547 17.49443701 0.91019654 18.13480643 -2 19 C-5.48514597 19.06336629 -7.89149704 18.96214805 -10.59765625 16.61328125 C-13.20847748 13.37702653 -13.99071511 11.54780876 -14.0625 7.3125 C-11.68598956 -0.09662077 -7.27363791 -1.32247962 0 0 Z " fill="#261768" transform="translate(52,151)"/>
<path d="M0 0 C-1.08196054 2.5245746 -2.00633756 4.00576142 -4.0625 5.875 C-6.4790362 8.52539454 -6.68060224 10.48662462 -7 14 C-7.33 14 -7.66 14 -8 14 C-8.42244894 10.55000031 -8.62172957 7.99399975 -6.734375 4.9765625 C-2.55 0 -2.55 0 0 0 Z " fill="#ADA8C6" transform="translate(160,14)"/>
</svg>
