<?xml version="1.0" encoding="UTF-8"?>
<svg version="1.1" xmlns="http://www.w3.org/2000/svg" width="365" height="365">
<path d="M0 0 C1.15302612 0.04616455 1.15302612 0.04616455 2.3293457 0.09326172 C7.74945487 0.37541882 12.79861076 1.33659757 18.0625 2.625 C19.26390625 2.88539062 20.4653125 3.14578125 21.703125 3.4140625 C29.72576122 5.27211894 37.3644325 7.69182222 45.0625 10.625 C45.93422852 10.95709473 46.80595703 11.28918945 47.70410156 11.63134766 C52.98532066 13.69258296 58.02965271 16.01537548 63.0625 18.625 C63.0625 19.285 63.0625 19.945 63.0625 20.625 C63.7225 20.625 64.3825 20.625 65.0625 20.625 C65.3925 19.635 65.7225 18.645 66.0625 17.625 C68.0625 20.625 68.0625 20.625 69.0625 23.625 C70.0525 23.295 71.0425 22.965 72.0625 22.625 C72.7225 23.615 73.3825 24.605 74.0625 25.625 C77.6422952 26.53899027 79.52724216 26.80341928 83.0625 25.625 C83.3925 24.965 83.7225 24.305 84.0625 23.625 C85.0525 23.295 86.0425 22.965 87.0625 22.625 C87.3925 21.965 87.7225 21.305 88.0625 20.625 C89.72169896 20.25628912 91.39024271 19.92904678 93.0625 19.625 C93.92875 19.274375 94.795 18.92375 95.6875 18.5625 C98.0625 17.625 98.0625 17.625 101.0625 17.625 C101.3925 16.965 101.7225 16.305 102.0625 15.625 C102.7225 14.965 103.3825 14.305 104.0625 13.625 C104.7050235 11.55625966 104.7050235 11.55625966 105.0625 9.625 C106.0525 10.615 107.0425 11.605 108.0625 12.625 C108.3925 12.295 108.7225 11.965 109.0625 11.625 C109.0625 10.965 109.0625 10.305 109.0625 9.625 C111.3725 9.955 113.6825 10.285 116.0625 10.625 C114.7425 10.955 113.4225 11.285 112.0625 11.625 C112.0625 12.285 112.0625 12.945 112.0625 13.625 C113.5165625 13.13 113.5165625 13.13 115 12.625 C118.0625 11.625 118.0625 11.625 119.0625 11.625 C119.3925 10.965 119.7225 10.305 120.0625 9.625 C120.7225 8.965 121.3825 8.305 122.0625 7.625 C121.4025 7.295 120.7425 6.965 120.0625 6.625 C121.0525 6.625 122.0425 6.625 123.0625 6.625 C123.3925 5.965 123.7225 5.305 124.0625 4.625 C124.206875 5.223125 124.35125 5.82125 124.5 6.4375 C124.9497439 8.18650404 125.49142341 9.91177023 126.0625 11.625 C127.0525 11.955 128.0425 12.285 129.0625 12.625 C129.3925 11.965 129.7225 11.305 130.0625 10.625 C130.0625 11.285 130.0625 11.945 130.0625 12.625 C130.990625 12.25375 131.91875 11.8825 132.875 11.5 C133.926875 11.21125 134.97875 10.9225 136.0625 10.625 C137.0525 11.285 138.0425 11.945 139.0625 12.625 C140.0525 12.625 141.0425 12.625 142.0625 12.625 C142.3925 11.305 142.7225 9.985 143.0625 8.625 C143.0625 10.605 143.0625 12.585 143.0625 14.625 C144.5475 14.13 144.5475 14.13 146.0625 13.625 C146.0625 14.285 146.0625 14.945 146.0625 15.625 C146.7225 15.625 147.3825 15.625 148.0625 15.625 C147.7325 14.635 147.4025 13.645 147.0625 12.625 C148.0525 12.955 149.0425 13.285 150.0625 13.625 C150.0625 15.275 150.0625 16.925 150.0625 18.625 C150.660625 18.91375 151.25875 19.2025 151.875 19.5 C156.87859195 22.07327586 156.87859195 22.07327586 158.0625 25.625 C159.0525 26.285 160.0425 26.945 161.0625 27.625 C161.3925 28.615 161.7225 29.605 162.0625 30.625 C161.7325 31.285 161.4025 31.945 161.0625 32.625 C162.0525 32.955 163.0425 33.285 164.0625 33.625 C163.7325 34.615 163.4025 35.605 163.0625 36.625 C163.38402133 37.96123086 163.71985104 39.29403021 164.0625 40.625 C164.92490562 56.72992349 164.92490562 56.72992349 162.0625 63.625 C160 65.5625 160 65.5625 158.0625 66.625 C157.7325 67.285 157.4025 67.945 157.0625 68.625 C155.72916667 68.95833333 154.39583333 69.29166667 153.0625 69.625 C152.7325 70.285 152.4025 70.945 152.0625 71.625 C149.0625 73.625 149.0625 73.625 147.3125 74 C144.81787539 74.58251288 144.81787539 74.58251288 141.99609375 76.49609375 C137.81721864 78.92281769 133.53168085 80.11857771 128.875 81.3125 C128.08158203 81.52455078 127.28816406 81.73660156 126.47070312 81.95507812 C123.00898702 82.87645848 119.53863598 83.75973543 116.0625 84.625 C116.47822266 85.78515625 116.47822266 85.78515625 116.90234375 86.96875 C120.22576366 96.52506064 120.22576366 96.52506064 120.6875 101.125 C121.02666386 104.29052933 121.59738071 105.90406417 123.0625 108.625 C122.7325 109.285 122.4025 109.945 122.0625 110.625 C122.30410772 112.41855644 122.54792805 114.21183177 122.80029297 116.00390625 C123.36875738 121.68643321 123.16268295 127.42038174 123.125 133.125 C123.12048828 134.424375 123.11597656 135.72375 123.11132812 137.0625 C123.0996092 140.25004825 123.08320219 143.43749955 123.0625 146.625 C123.7225 146.955 124.3825 147.285 125.0625 147.625 C124.4025 147.625 123.7425 147.625 123.0625 147.625 C123.03671875 148.53636719 123.0109375 149.44773438 122.984375 150.38671875 C122.26260873 166.87251647 119.03009428 182.90309256 114.0625 198.625 C114.7225 198.625 115.3825 198.625 116.0625 198.625 C116.3925 197.965 116.7225 197.305 117.0625 196.625 C117.0625 197.615 117.0625 198.605 117.0625 199.625 C115.4125 199.955 113.7625 200.285 112.0625 200.625 C112.0625 201.285 112.0625 201.945 112.0625 202.625 C111.4025 202.625 110.7425 202.625 110.0625 202.625 C110.0625 204.275 110.0625 205.925 110.0625 207.625 C109.4025 207.955 108.7425 208.285 108.0625 208.625 C106.94025145 210.50513106 106.94025145 210.50513106 105.9375 212.6875 C105.40769531 213.78771484 105.40769531 213.78771484 104.8671875 214.91015625 C104.60164063 215.47605469 104.33609375 216.04195312 104.0625 216.625 C103.4025 216.625 102.7425 216.625 102.0625 216.625 C101.80082031 217.1921875 101.53914063 217.759375 101.26953125 218.34375 C98.15918644 224.22220104 93.63982376 229.95990153 88.0625 233.625 C87.4025 233.625 86.7425 233.625 86.0625 233.625 C85.7325 234.615 85.4025 235.605 85.0625 236.625 C83.40301852 237.63687895 81.73669438 238.6376546 80.0625 239.625 C80.0625 240.285 80.0625 240.945 80.0625 241.625 C79.03125 242.058125 78 242.49125 76.9375 242.9375 C74.56753869 243.94842917 72.29960654 245.01423136 70 246.1875 C67.0625 247.625 67.0625 247.625 63.75 248.6875 C60.92276986 249.32344477 60.92276986 249.32344477 60.0625 251.625 C59.0725 251.625 58.0825 251.625 57.0625 251.625 C56.381875 251.975625 55.70125 252.32625 55 252.6875 C54.360625 252.996875 53.72125 253.30625 53.0625 253.625 C52.4025 253.295 51.7425 252.965 51.0625 252.625 C51.3925 253.945 51.7225 255.265 52.0625 256.625 C50.14192708 256.29947917 48.22135417 255.97395833 46.30078125 255.6484375 C43.4795696 255.61889602 41.66705636 256.5476436 39.0625 257.625 C36.59993357 258.1656324 34.17031153 258.64423382 31.6875 259.0625 C30.96216064 259.18665283 30.23682129 259.31080566 29.48950195 259.4387207 C-0.10731858 264.36997828 -0.10731858 264.36997828 -12.9375 263.625 C-13.2675 264.285 -13.5975 264.945 -13.9375 265.625 C-13.9375 264.965 -13.9375 264.305 -13.9375 263.625 C-15.2575 263.625 -16.5775 263.625 -17.9375 263.625 C-18.2675 264.285 -18.5975 264.945 -18.9375 265.625 C-19.5975 265.625 -20.2575 265.625 -20.9375 265.625 C-20.9375 264.965 -20.9375 264.305 -20.9375 263.625 C-21.9275 263.625 -22.9175 263.625 -23.9375 263.625 C-23.9375 264.285 -23.9375 264.945 -23.9375 265.625 C-26.2475 264.965 -28.5575 264.305 -30.9375 263.625 C-31.2675 264.285 -31.5975 264.945 -31.9375 265.625 C-31.9375 264.965 -31.9375 264.305 -31.9375 263.625 C-33.9175 263.955 -35.8975 264.285 -37.9375 264.625 C-37.9375 263.965 -37.9375 263.305 -37.9375 262.625 C-39.5875 263.285 -41.2375 263.945 -42.9375 264.625 C-42.9375 263.965 -42.9375 263.305 -42.9375 262.625 C-44.68568591 262.40195559 -46.43620323 262.1971355 -48.1875 262 C-49.16203125 261.88398438 -50.1365625 261.76796875 -51.140625 261.6484375 C-54.07179393 261.62387463 -55.48278964 262.0937283 -57.9375 263.625 C-57.9375 262.305 -57.9375 260.985 -57.9375 259.625 C-59.04609375 259.50382812 -60.1546875 259.38265625 -61.296875 259.2578125 C-62.76046234 259.08893704 -64.22400157 258.91964428 -65.6875 258.75 C-66.41710937 258.67136719 -67.14671875 258.59273438 -67.8984375 258.51171875 C-71.60527257 258.07363824 -74.74202172 257.6263785 -77.9375 255.625 C-77.9375 256.285 -77.9375 256.945 -77.9375 257.625 C-78.5975 257.295 -79.2575 256.965 -79.9375 256.625 C-79.6075 255.965 -79.2775 255.305 -78.9375 254.625 C-79.47375 254.851875 -80.01 255.07875 -80.5625 255.3125 C-84.04276835 255.77043005 -85.99179282 254.39242431 -88.9375 252.625 C-89.2675 251.965 -89.5975 251.305 -89.9375 250.625 C-92.52355332 250.1566735 -92.52355332 250.1566735 -95.5 250 C-96.51191406 249.92523438 -97.52382812 249.85046875 -98.56640625 249.7734375 C-99.74009766 249.69996094 -99.74009766 249.69996094 -100.9375 249.625 C-100.6075 248.635 -100.2775 247.645 -99.9375 246.625 C-100.515 246.480625 -101.0925 246.33625 -101.6875 246.1875 C-102.43 246.001875 -103.1725 245.81625 -103.9375 245.625 C-104.9275 245.4703125 -104.9275 245.4703125 -105.9375 245.3125 C-108.62666837 244.38809837 -109.94440092 242.61809908 -111.9375 240.625 C-114.0756966 239.8377322 -114.0756966 239.8377322 -115.9375 239.625 C-115.9375 238.965 -115.9375 238.305 -115.9375 237.625 C-116.494375 237.563125 -117.05125 237.50125 -117.625 237.4375 C-120.89515706 236.2885259 -122.56796369 234.11301312 -124.9375 231.625 C-125.68 231.08875 -126.4225 230.5525 -127.1875 230 C-128.9375 228.625 -128.9375 228.625 -129.9375 225.625 C-130.5975 225.295 -131.2575 224.965 -131.9375 224.625 C-131.9375 223.965 -131.9375 223.305 -131.9375 222.625 C-132.5975 222.295 -133.2575 221.965 -133.9375 221.625 C-134.22625 220.985625 -134.515 220.34625 -134.8125 219.6875 C-136.16659764 217.20498766 -137.35928493 216.65628603 -139.9375 215.625 C-139.9375 214.635 -139.9375 213.645 -139.9375 212.625 C-140.89689668 210.93463442 -141.90392853 209.27105826 -142.9375 207.625 C-143.453125 206.573125 -143.96875 205.52125 -144.5 204.4375 C-145.7798004 201.57748607 -145.7798004 201.57748607 -147.9375 199.625 C-147.9375 198.305 -147.9375 196.985 -147.9375 195.625 C-148.9275 194.635 -148.9275 194.635 -149.9375 193.625 C-150.71890358 190.85028012 -151.39518302 188.12598926 -152 185.3125 C-152.1762793 184.5095752 -152.35255859 183.70665039 -152.53417969 182.87939453 C-153.95425008 176.13473128 -154.69385279 169.52021606 -154.9375 162.625 C-155.5975 162.625 -156.2575 162.625 -156.9375 162.625 C-157.01288559 156.70665119 -157.06667144 150.788595 -157.10229492 144.86987305 C-157.11717939 142.86559163 -157.13749353 140.86134154 -157.16381836 138.85717773 C-157.32634546 126.14500872 -156.64831187 114.10301265 -154.29995728 101.60073853 C-152.91902347 95.06742512 -152.91902347 95.06742512 -153.9375 88.625 C-152.9475 87.965 -151.9575 87.305 -150.9375 86.625 C-150.9375 85.965 -150.9375 85.305 -150.9375 84.625 C-153.9075 83.965 -156.8775 83.305 -159.9375 82.625 C-159.9375 81.965 -159.9375 81.305 -159.9375 80.625 C-160.948125 80.50125 -161.95875 80.3775 -163 80.25 C-168.87618272 79.31727258 -173.70606975 77.80170394 -178.9375 75 C-183.27470583 72.7385517 -186.09930157 72.09910887 -190.9375 72.625 C-189.9475 72.13 -189.9475 72.13 -188.9375 71.625 C-188.9375 70.965 -188.9375 70.305 -188.9375 69.625 C-190.76014995 67.53653264 -190.76014995 67.53653264 -193 66.8125 C-193.639375 66.420625 -194.27875 66.02875 -194.9375 65.625 C-195.31885622 63.96866177 -195.64485889 62.29929092 -195.9375 60.625 C-196.44400624 59.0162522 -196.96510021 57.41203126 -197.5 55.8125 C-199.63380946 48.77302076 -199.37090316 43.62103408 -196.9375 36.625 C-196.76951531 33.37455291 -196.76951531 33.37455291 -196.9375 30.625 C-196.2775 30.625 -195.6175 30.625 -194.9375 30.625 C-194.6075 28.975 -194.2775 27.325 -193.9375 25.625 C-193.2775 25.625 -192.6175 25.625 -191.9375 25.625 C-191.69 24.84125 -191.4425 24.0575 -191.1875 23.25 C-189.78360901 20.30182892 -188.93074263 19.7225223 -185.9375 18.625 C-185.9375 17.635 -185.9375 16.645 -185.9375 15.625 C-184.9475 15.955 -183.9575 16.285 -182.9375 16.625 C-181.09092812 15.95207881 -181.09092812 15.95207881 -179.3125 14.8125 C-178.70148438 14.45542969 -178.09046875 14.09835938 -177.4609375 13.73046875 C-175.77616369 12.68671494 -175.77616369 12.68671494 -174.9375 10.625 C-174.6075 11.615 -174.2775 12.605 -173.9375 13.625 C-173.07862183 13.13362549 -173.07862183 13.13362549 -172.20239258 12.63232422 C-168.41534917 10.94801452 -164.69492334 11.51786786 -160.625 11.75 C-159.73433838 11.79785645 -158.84367676 11.84571289 -157.92602539 11.89501953 C-149.86723906 12.43694455 -142.65261537 14.22354713 -134.9375 16.625 C-131.93255699 17.40001461 -128.92414469 18.15932213 -125.9140625 18.9140625 C-123.9375 19.625 -123.9375 19.625 -122.9375 21.625 C-121.9475 21.13 -121.9475 21.13 -120.9375 20.625 C-120.504375 21.285 -120.07125 21.945 -119.625 22.625 C-119.068125 23.285 -118.51125 23.945 -117.9375 24.625 C-116.9475 24.625 -115.9575 24.625 -114.9375 24.625 C-113.9475 25.285 -112.9575 25.945 -111.9375 26.625 C-110.6175 26.625 -109.2975 26.625 -107.9375 26.625 C-107.9375 25.965 -107.9375 25.305 -107.9375 24.625 C-106.9475 23.965 -105.9575 23.305 -104.9375 22.625 C-104.2775 21.965 -103.6175 21.305 -102.9375 20.625 C-102.215625 20.49351563 -101.49375 20.36203125 -100.75 20.2265625 C-97.12212694 19.45060076 -94.16904787 17.74777362 -90.9375 16 C-82.01630884 11.33154024 -72.67009306 8.30958949 -63.06542969 5.36767578 C-59.67993504 4.18609309 -56.92372822 2.61581882 -53.9375 0.625 C-53.6075 1.285 -53.2775 1.945 -52.9375 2.625 C-52.3290625 2.49222656 -51.720625 2.35945313 -51.09375 2.22265625 C-34.3241619 -1.15592253 -17.01436128 -0.7702729 0 0 Z " fill="#03AEED" transform="translate(198.9375,50.375)"/>
<path d="M0 0 C1.81961398 0.40023613 3.64760494 0.76226886 5.47753906 1.11230469 C18.38362501 3.95866201 30.4640074 11.90392434 40.25097656 20.49511719 C41.07984375 21.12546875 41.90871094 21.75582031 42.76269531 22.40527344 C49.88470326 28.38686567 54.51801142 36.70647666 57.25097656 45.49511719 C57.58742188 46.56826172 57.58742188 46.56826172 57.93066406 47.66308594 C60.85926783 58.67543845 60.16829877 70.12757894 54.80957031 80.20605469 C44.8532856 96.69976069 31.44541827 106.65381706 14.25097656 114.49511719 C13.6107959 114.7907959 12.97061523 115.08647461 12.31103516 115.39111328 C9.4415857 116.67788555 7.43291776 117.49511719 4.25097656 117.49511719 C4.25097656 118.15511719 4.25097656 118.81511719 4.25097656 119.49511719 C6.23097656 119.49511719 8.21097656 119.49511719 10.25097656 119.49511719 C10.25097656 119.82511719 10.25097656 120.15511719 10.25097656 120.49511719 C-12.34391377 124.07676928 -12.34391377 124.07676928 -22.74902344 123.49511719 C-23.07902344 124.15511719 -23.40902344 124.81511719 -23.74902344 125.49511719 C-23.74902344 124.83511719 -23.74902344 124.17511719 -23.74902344 123.49511719 C-25.06902344 123.49511719 -26.38902344 123.49511719 -27.74902344 123.49511719 C-28.07902344 124.15511719 -28.40902344 124.81511719 -28.74902344 125.49511719 C-29.40902344 125.49511719 -30.06902344 125.49511719 -30.74902344 125.49511719 C-30.74902344 124.83511719 -30.74902344 124.17511719 -30.74902344 123.49511719 C-31.73902344 123.49511719 -32.72902344 123.49511719 -33.74902344 123.49511719 C-33.74902344 124.15511719 -33.74902344 124.81511719 -33.74902344 125.49511719 C-36.05902344 124.83511719 -38.36902344 124.17511719 -40.74902344 123.49511719 C-41.07902344 124.15511719 -41.40902344 124.81511719 -41.74902344 125.49511719 C-41.74902344 124.83511719 -41.74902344 124.17511719 -41.74902344 123.49511719 C-43.72902344 123.82511719 -45.70902344 124.15511719 -47.74902344 124.49511719 C-47.74902344 123.83511719 -47.74902344 123.17511719 -47.74902344 122.49511719 C-49.39902344 123.15511719 -51.04902344 123.81511719 -52.74902344 124.49511719 C-52.74902344 123.83511719 -52.74902344 123.17511719 -52.74902344 122.49511719 C-55.05902344 122.16511719 -57.36902344 121.83511719 -59.74902344 121.49511719 C-59.25402344 120.01011719 -59.25402344 120.01011719 -58.74902344 118.49511719 C-59.51085937 118.32496094 -60.27269531 118.15480469 -61.05761719 117.97949219 C-72.38933631 115.31986273 -81.13698849 111.03799729 -90.74902344 104.49511719 C-91.52375 103.98335938 -92.29847656 103.47160156 -93.09667969 102.94433594 C-104.31854727 94.96829954 -114.20557071 81.13727273 -116.74902344 67.49511719 C-117.92683889 52.07835416 -114.36514485 38.34476776 -104.49902344 26.30761719 C-103.59152344 25.37949219 -102.68402344 24.45136719 -101.74902344 23.49511719 C-101.08902344 23.49511719 -100.42902344 23.49511719 -99.74902344 23.49511719 C-99.74902344 22.83511719 -99.74902344 22.17511719 -99.74902344 21.49511719 C-97.80595393 19.79830996 -95.86858897 18.23058377 -93.81152344 16.68261719 C-93.2139624 16.23120361 -92.61640137 15.77979004 -92.00073242 15.31469727 C-65.44001559 -4.46197428 -31.38935957 -6.92039363 0 0 Z " fill="#FBFBFB" transform="translate(208.7490234375,190.5048828125)"/>
<path d="M0 0 C0.94875 0.639375 1.8975 1.27875 2.875 1.9375 C7.74984171 6.66896402 9.81123115 11.67912744 10.21875 18.3828125 C9.65583682 25.11766658 6.04296689 30.37457713 1.1875 34.875 C-9.00313358 42.97427221 -20.73109784 45.53011433 -33.5625 45.375 C-34.52607422 45.38660156 -35.48964844 45.39820313 -36.48242188 45.41015625 C-47.64517467 45.36499339 -58.93540007 42.05383328 -67.625 34.8125 C-69 33 -69 33 -69 31 C-69.62261719 30.75378906 -70.24523437 30.50757813 -70.88671875 30.25390625 C-74.12516445 28.33238856 -74.50871038 25.99232508 -75.515625 22.49609375 C-76.69693136 16.40855533 -75.73462648 11.69191654 -72.5625 6.375 C-65.54647126 -3.17413175 -55.05807937 -7.60226563 -43.64453125 -9.58203125 C-27.38097192 -11.44719829 -13.74394014 -9.44574163 0 0 Z " fill="#02355C" transform="translate(212,200)"/>
<path d="M0 0 C0.66 0.66 1.32 1.32 2 2 C1.34 3.65 0.68 5.3 0 7 C-0.66 7 -1.32 7 -2 7 C-2.185625 8.36125 -2.185625 8.36125 -2.375 9.75 C-2.9275659 12.62334269 -3.64482241 14.46592809 -5 17 C-16.02214805 15.2488176 -25.13157212 12.21234291 -35 7 C-35 6.34 -35 5.68 -35 5 C-36.32 4.67 -37.64 4.34 -39 4 C-39.33 1.69 -39.66 -0.62 -40 -3 C-28.77648104 -9.432584 -11.62868975 -4.23352167 0 0 Z " fill="#03385E" transform="translate(58,110)"/>
<path d="M0 0 C0.74121094 0.00064453 1.48242188 0.00128906 2.24609375 0.00195312 C5.74429144 0.03021505 8.88527799 0.25207742 12.25 1.1875 C12.61666667 6.6875 12.61666667 6.6875 10.875 9.0625 C9.25 10.1875 9.25 10.1875 7.25 10.1875 C7.25 10.8475 7.25 11.5075 7.25 12.1875 C1.18414668 15.68989688 -4.99208201 18.04246243 -11.6875 20 C-12.80596313 20.32810669 -12.80596313 20.32810669 -13.94702148 20.6628418 C-16.96782775 21.51811166 -19.5953927 22.1875 -22.75 22.1875 C-23.73111975 20.0842433 -24.70983134 17.97986311 -25.6875 15.875 C-26.23277344 14.70324219 -26.77804687 13.53148438 -27.33984375 12.32421875 C-28.75 9.1875 -28.75 9.1875 -29.75 6.1875 C-26.27218725 4.66595692 -22.79704597 3.63157068 -19.10546875 2.75 C-17.06905282 2.26369172 -15.04978919 1.70657812 -13.03515625 1.13671875 C-8.65164207 0.04020388 -4.49923912 -0.07591967 0 0 Z " fill="#02385E" transform="translate(333.75,104.8125)"/>
<path d="M0 0 C3.85544798 1.99657127 5.59805092 3.39707638 8 7 C8 11.28968824 7.67045433 13.2933049 4.6875 16.4375 C0.00475988 19.07438279 -5.83083115 18.77224461 -11 18 C-14.47620659 16.30392765 -15.82708934 15.25936599 -18 12 C-18.4375 9.125 -18.4375 9.125 -18 6 C-12.89016742 -0.21466125 -7.68414276 -0.88433369 0 0 Z " fill="#F04251" transform="translate(92,181)"/>
<path d="M0 0 C2.64343378 1.51053359 4.35163362 2.80217816 6.1875 5.25 C6.75 8.1875 6.75 8.1875 6.1875 11.25 C3.63725635 14.35164769 2.01050753 15.97566416 -1.8125 17.25 C-6.747543 17.64724804 -11.28006939 17.90675597 -15.875 15.9375 C-17.8125 14.25 -17.8125 14.25 -19.8125 11.25 C-19.66929006 7.31172672 -19.40379356 4.99897184 -16.9375 1.875 C-12.09303515 -1.82959077 -5.6881227 -1.51683272 0 0 Z " fill="#F14250" transform="translate(283.8125,181.75)"/>
<path d="M0 0 C3.99449676 1.08349822 5.11670028 3.02636904 7.16015625 6.5859375 C7.78515625 9.6484375 7.78515625 9.6484375 7.16015625 12.5859375 C3.88513203 16.46425565 1.85978238 18.42856471 -3.21484375 18.8984375 C-6.83984375 18.5859375 -6.83984375 18.5859375 -9.21484375 16.7109375 C-11.90601053 13.1917194 -12.35226839 11.02695104 -11.83984375 6.5859375 C-8.7550496 1.21242511 -6.25758143 -0.43876197 0 0 Z " fill="#512609" transform="translate(126.83984375,156.4140625)"/>
<path d="M0 0 C2.31640625 0.73828125 2.31640625 0.73828125 4.94140625 2.86328125 C6.72849104 6.59991308 7.11946229 8.64999595 6.31640625 12.73828125 C3.32497319 16.24881593 0.16727956 17.57690873 -4.30859375 18.42578125 C-7.68359375 17.73828125 -7.68359375 17.73828125 -10.62109375 15.11328125 C-12.88926533 11.40172776 -13.56568384 9.97231368 -12.68359375 5.73828125 C-9.39911991 -0.28325412 -6.71108946 -1.15018672 0 0 Z " fill="#51270B" transform="translate(235.68359375,157.26171875)"/>
<path d="M0 0 C2.375 2 2.375 2 4 4 C3 7 3 7 0.8125 8.25 C-2.53510743 9.14269531 -4.66991484 8.88802271 -8 8 C-8.66 7.34 -9.32 6.68 -10 6 C-10 4.68 -10 3.36 -10 2 C-6.59575912 -0.09491746 -3.96585158 -0.49573145 0 0 Z " fill="#FAFCF9" transform="translate(205,200)"/>
<path d="M0 0 C0.82886719 0.11085938 1.65773437 0.22171875 2.51171875 0.3359375 C3.10597656 0.43132812 3.70023438 0.52671875 4.3125 0.625 C4.3125 0.955 4.3125 1.285 4.3125 1.625 C-18.28239033 5.20665209 -18.28239033 5.20665209 -28.6875 4.625 C-29.0175 5.285 -29.3475 5.945 -29.6875 6.625 C-29.6875 5.965 -29.6875 5.305 -29.6875 4.625 C-31.0075 4.625 -32.3275 4.625 -33.6875 4.625 C-34.0175 5.285 -34.3475 5.945 -34.6875 6.625 C-35.3475 6.625 -36.0075 6.625 -36.6875 6.625 C-36.6875 5.965 -36.6875 5.305 -36.6875 4.625 C-38.0075 4.295 -39.3275 3.965 -40.6875 3.625 C-40.01807373 3.5748877 -39.34864746 3.52477539 -38.65893555 3.47314453 C-35.56380739 3.23803102 -32.46943522 2.99405787 -29.375 2.75 C-28.32248047 2.67136719 -27.26996094 2.59273438 -26.18554688 2.51171875 C-20.96995758 2.09447161 -15.88792562 1.53392029 -10.75 0.53125 C-7.01160052 -0.19322767 -3.80540725 -0.5515083 0 0 Z " fill="#F9D255" transform="translate(214.6875,309.375)"/>
<path d="M0 0 C6.93594422 0.76138937 6.93594422 0.76138937 10.28515625 3.47265625 C11.95694518 6.96821492 11.96050764 9.51817603 11.66015625 13.34765625 C10.67015625 13.84265625 10.67015625 13.84265625 9.66015625 14.34765625 C9.70140625 13.39890625 9.74265625 12.45015625 9.78515625 11.47265625 C10.00989443 8.24520769 10.00989443 8.24520769 7.66015625 6.34765625 C5.05735057 6.66807022 5.05735057 6.66807022 2.66015625 7.34765625 C2.99015625 6.68765625 3.32015625 6.02765625 3.66015625 5.34765625 C2.01015625 5.34765625 0.36015625 5.34765625 -1.33984375 5.34765625 C-1.33984375 4.68765625 -1.33984375 4.02765625 -1.33984375 3.34765625 C-2.65984375 3.67765625 -3.97984375 4.00765625 -5.33984375 4.34765625 C-3.01197507 0.44752217 -3.01197507 0.44752217 0 0 Z " fill="#512606" transform="translate(230.33984375,156.65234375)"/>
<path d="M0 0 C0.33 0.99 0.66 1.98 1 3 C0.67 3.66 0.34 4.32 0 5 C-0.66 5 -1.32 5 -2 5 C-1.67 5.99 -1.34 6.98 -1 8 C1.64 8 4.28 8 7 8 C7 9.32 7 10.64 7 12 C6.01 12.33 5.02 12.66 4 13 C4 13.99 4 14.98 4 16 C-0.5862069 14.55172414 -0.5862069 14.55172414 -2.3125 12.25 C-3.20800563 9.31925429 -3.31779746 7.05085564 -3 4 C-1.5 1.625 -1.5 1.625 0 0 Z " fill="#483C2C" transform="translate(118,159)"/>
<path d="M0 0 C0.99 0.33 1.98 0.66 3 1 C2.67 1.99 2.34 2.98 2 4 C2.66 4.33 3.32 4.66 4 5 C4 6.65 4 8.3 4 10 C1.36 10.33 -1.28 10.66 -4 11 C-4 9.68 -4 8.36 -4 7 C-3.34 7 -2.68 7 -2 7 C-1.34 4.69 -0.68 2.38 0 0 Z " fill="#4E2E16" transform="translate(120,157)"/>
<path d="M0 0 C0.66 0.99 1.32 1.98 2 3 C1.67 3.99 1.34 4.98 1 6 C-3.05431692 7.15837626 -5.21812119 6.83691257 -9 5 C-9 3 -9 3 -7.875 1.375 C-5.16988387 -0.60875183 -3.26546276 -0.41686759 0 0 Z " fill="#FA3C4B" transform="translate(278,182)"/>
<path d="M0 0 C0 0.66 0 1.32 0 2 C0.33 2.99 0.66 3.98 1 5 C-3.61073111 6.29676812 -7.33840089 5.71109139 -12 5 C-12 4.34 -12 3.68 -12 3 C-10.3789897 2.30314502 -8.75303934 1.61777139 -7.125 0.9375 C-6.22007812 0.55464844 -5.31515625 0.17179687 -4.3828125 -0.22265625 C-2 -1 -2 -1 0 0 Z " fill="#70C1C6" transform="translate(225,305)"/>
<path d="M0 0 C3.01326538 0.32284986 4.03461538 1.03365384 6.25 3.1875 C8.27011863 6.43411922 8.34907695 8.24742282 8 12 C6.29115995 10.37660195 4.62553283 8.70680947 3 7 C3 6.34 3 5.68 3 5 C2.01 5 1.02 5 0 5 C0 3.35 0 1.7 0 0 Z " fill="#44483E" transform="translate(126,157)"/>
<path d="M0 0 C0 0.33 0 0.66 0 1 C-1.65 1 -3.3 1 -5 1 C-5.33 1.66 -5.66 2.32 -6 3 C-6 2.34 -6 1.68 -6 1 C-7.98 1.33 -9.96 1.66 -12 2 C-12 1.34 -12 0.68 -12 0 C-13.65 0.66 -15.3 1.32 -17 2 C-17.33 1.01 -17.66 0.02 -18 -1 C-12.35323396 -2.88225535 -5.71918022 -1.33447538 0 0 Z " fill="#F7D678" transform="translate(173,313)"/>
<path d="M0 0 C0 0.33 0 0.66 0 1 C-2.18542332 1.36676314 -4.37348406 1.717827 -6.5625 2.0625 C-7.78066406 2.25972656 -8.99882812 2.45695312 -10.25390625 2.66015625 C-14.05460049 3.00495333 -17.2590233 2.68849378 -21 2 C-21 1.67 -21 1.34 -21 1 C-13.69860023 -0.67959957 -7.41226226 -1.18982084 0 0 Z " fill="#F6D064" transform="translate(219,310)"/>
<path d="M0 0 C2.31 0.66 4.62 1.32 7 2 C7 2.66 7 3.32 7 4 C5.88625 4.309375 4.7725 4.61875 3.625 4.9375 C0.2054845 5.82326483 0.2054845 5.82326483 -2 7 C-2 5.68 -2 4.36 -2 3 C-1.01 3 -0.02 3 1 3 C0.67 2.01 0.34 1.02 0 0 Z " fill="#75C9DD" transform="translate(143,307)"/>
<path d="M0 0 C2.86695056 1.46843809 4.03186881 2.49291622 5.5625 5.3125 C5.75 8.0625 5.75 8.0625 5.5625 10.3125 C1.78627622 6.78802448 1.78627622 6.78802448 0.5625 4.1875 C-0.69985606 1.82058239 -1.99306051 1.2902758 -4.4375 0.3125 C-2.4375 -0.6875 -2.4375 -0.6875 0 0 Z " fill="#D25266" transform="translate(94.4375,182.6875)"/>
<path d="M0 0 C1.41623216 -0.05447047 2.83308191 -0.09300508 4.25 -0.125 C5.03890625 -0.14820313 5.8278125 -0.17140625 6.640625 -0.1953125 C9.20731941 0.0171622 10.7916067 0.71345895 13 2 C11.71034824 3.37562854 10.37310707 4.70766393 9 6 C8.34 6 7.68 6 7 6 C6.67 4.68 6.34 3.36 6 2 C3.03 1.505 3.03 1.505 0 1 C0 0.67 0 0.34 0 0 Z " fill="#D75061" transform="translate(272,181)"/>
<path d="M0 0 C0.66 0.66 1.32 1.32 2 2 C1.8125 4 1.8125 4 1 6 C0.01 6.66 -0.98 7.32 -2 8 C-2.6875 5.6875 -2.6875 5.6875 -3 3 C-1.5625 1.1875 -1.5625 1.1875 0 0 Z " fill="#F93E49" transform="translate(97,188)"/>
<path d="M0 0 C-0.99 1.485 -0.99 1.485 -2 3 C-2.66 3 -3.32 3 -4 3 C-4.33 3.99 -4.66 4.98 -5 6 C-5 5.34 -5 4.68 -5 4 C-5.66 4 -6.32 4 -7 4 C-7 2.68 -7 1.36 -7 0 C-4.3333581 -1.33332095 -2.83319697 -0.67102033 0 0 Z " fill="#512506" transform="translate(232,161)"/>
<path d="M0 0 C0.90105469 0.00902344 1.80210938 0.01804688 2.73046875 0.02734375 C3.41753906 0.03894531 4.10460937 0.05054688 4.8125 0.0625 C4.8125 0.3925 4.8125 0.7225 4.8125 1.0625 C3.1625 1.0625 1.5125 1.0625 -0.1875 1.0625 C-0.1875 1.7225 -0.1875 2.3825 -0.1875 3.0625 C-3.1575 3.0625 -6.1275 3.0625 -9.1875 3.0625 C-7.31499103 -0.68251794 -3.72136574 -0.04832943 0 0 Z " fill="#C05C6D" transform="translate(87.1875,180.9375)"/>
<path d="M0 0 C2.5 2.0625 2.5 2.0625 5 5 C5.3125 8.8125 5.3125 8.8125 5 12 C4.01 12.495 4.01 12.495 3 13 C3.04125 12.05125 3.0825 11.1025 3.125 10.125 C3.34973818 6.89755144 3.34973818 6.89755144 1 5 C0.375 2.375 0.375 2.375 0 0 Z " fill="#3E5753" transform="translate(237,158)"/>
<path d="M0 0 C2.31 0.33 4.62 0.66 7 1 C5.68 1.33 4.36 1.66 3 2 C3 2.66 3 3.32 3 4 C3.99 3.67 4.98 3.34 6 3 C6 3.66 6 4.32 6 5 C4.02 5 2.04 5 0 5 C0 3.35 0 1.7 0 0 Z " fill="#D6E1E2" transform="translate(308,60)"/>
<path d="M0 0 C1.85776765 3.13498292 2.20140476 5.37471432 2 9 C1.01 9.495 1.01 9.495 0 10 C-1.36952673 7.26094655 -1.12621361 5.02912668 -1 2 C-0.67 1.34 -0.34 0.68 0 0 Z " fill="#43463E" transform="translate(224,161)"/>
<path d="M0 0 C-0.33 0.99 -0.66 1.98 -1 3 C-3.31 3 -5.62 3 -8 3 C-8 2.34 -8 1.68 -8 1 C-3.375 -1.125 -3.375 -1.125 0 0 Z " fill="#1BB3DF" transform="translate(221,307)"/>
<path d="M0 0 C1.3921875 0.0928125 1.3921875 0.0928125 2.8125 0.1875 C2.8125 1.1775 2.8125 2.1675 2.8125 3.1875 C-0.1575 3.1875 -3.1275 3.1875 -6.1875 3.1875 C-3.1875 0.1875 -3.1875 0.1875 0 0 Z " fill="#ECF1F3" transform="translate(202.1875,199.8125)"/>
<path d="M0 0 C1.32 0.33 2.64 0.66 4 1 C4.33 2.65 4.66 4.3 5 6 C3.35 5.67 1.7 5.34 0 5 C0 3.35 0 1.7 0 0 Z " fill="#473824" transform="translate(126,157)"/>
<path d="M0 0 C0.928125 0.0825 1.85625 0.165 2.8125 0.25 C1.8225 0.58 0.8325 0.91 -0.1875 1.25 C-0.92073796 3.26508358 -0.92073796 3.26508358 -1.1875 5.25 C-1.5175 4.59 -1.8475 3.93 -2.1875 3.25 C-3.5075 3.58 -4.8275 3.91 -6.1875 4.25 C-4.36434338 1.00883268 -3.82500054 0.30000004 0 0 Z " fill="#483B2F" transform="translate(231.1875,156.75)"/>
<path d="M0 0 C0.103125 0.639375 0.20625 1.27875 0.3125 1.9375 C0.539375 2.618125 0.76625 3.29875 1 4 C1.99 4.33 2.98 4.66 4 5 C4 5.66 4 6.32 4 7 C5.45833358 8.62514468 5.45833358 8.62514468 7 10 C3.34683329 8.75023244 2.21934164 8.32901247 0 5 C-0.125 2.3125 -0.125 2.3125 0 0 Z " fill="#AD687B" transform="translate(264,188)"/>
<path d="M0 0 C1.32 0 2.64 0 4 0 C4 0.66 4 1.32 4 2 C-1.41176471 6 -1.41176471 6 -4 6 C-4 5.34 -4 4.68 -4 4 C-3.01 3.34 -2.02 2.68 -1 2 C-0.67 1.34 -0.34 0.68 0 0 Z " fill="#BBDDE3" transform="translate(95,71)"/>
<path d="M0 0 C0 0.66 0 1.32 0 2 C-1.65 2.33 -3.3 2.66 -5 3 C-5 4.32 -5 5.64 -5 7 C-6.32 6.67 -7.64 6.34 -9 6 C-8.01 6 -7.02 6 -6 6 C-5.67 4.35 -5.34 2.7 -5 1 C-2 0 -2 0 0 0 Z " fill="#E6E5E6" transform="translate(354,55)"/>
<path d="M0 0 C1.98 0.495 1.98 0.495 4 1 C4 1.66 4 2.32 4 3 C2.35 2.67 0.7 2.34 -1 2 C-0.67 1.34 -0.34 0.68 0 0 Z " fill="#E6E6E6" transform="translate(339,50)"/>
<path d="M0 0 C0.66 0.66 1.32 1.32 2 2 C0.02 2 -1.96 2 -4 2 C-2.68 1.34 -1.36 0.68 0 0 Z " fill="#E6E9EB" transform="translate(149,314)"/>
<path d="M0 0 C0.33 1.32 0.66 2.64 1 4 C0.34 4 -0.32 4 -1 4 C-0.67 2.68 -0.34 1.36 0 0 Z " fill="#F6F6F0" transform="translate(40,166)"/>
<path d="M0 0 C0.99 0 1.98 0 3 0 C2.67 0.99 2.34 1.98 2 3 C1.34 3 0.68 3 0 3 C0 2.01 0 1.02 0 0 Z " fill="#E4E4E4" transform="translate(306,51)"/>
<path d="M0 0 C2 2 2 2 2 4 C1.34 4 0.68 4 0 4 C0 2.68 0 1.36 0 0 Z " fill="#F3F4F0" transform="translate(354,121)"/>
<path d="M0 0 C1.32 0.33 2.64 0.66 4 1 C3.34 1 2.68 1 2 1 C1.67 1.66 1.34 2.32 1 3 C0.67 2.01 0.34 1.02 0 0 Z " fill="#F2F5F2" transform="translate(5,72)"/>
<path d="M0 0 C0.99 0 1.98 0 3 0 C2 2 2 2 0 3 C0 2.01 0 1.02 0 0 Z " fill="#F2F8E9" transform="translate(283,70)"/>
<path d="M0 0 C0.66 0.66 1.32 1.32 2 2 C1.67 2.99 1.34 3.98 1 5 C0.67 3.35 0.34 1.7 0 0 Z " fill="#7CA6B5" transform="translate(95,49)"/>
<path d="M0 0 C1.485 0.99 1.485 0.99 3 2 C2.01 2.33 1.02 2.66 0 3 C0 2.01 0 1.02 0 0 Z " fill="#F8F5ED" transform="translate(280,289)"/>
<path d="M0 0 C1.98 0.99 1.98 0.99 4 2 C2.68 2 1.36 2 0 2 C0 1.34 0 0.68 0 0 Z " fill="#F5F4EB" transform="translate(47,251)"/>
<path d="M0 0 C0.66 0.33 1.32 0.66 2 1 C0.68 1.33 -0.64 1.66 -2 2 C-1.34 1.34 -0.68 0.68 0 0 Z " fill="#F5F6EE" transform="translate(277,70)"/>
<path d="M0 0 C1.32 0.33 2.64 0.66 4 1 C3.01 1.495 3.01 1.495 2 2 C1.34 1.34 0.68 0.68 0 0 Z " fill="#F2F8EA" transform="translate(352,69)"/>
<path d="M0 0 C0.66 0 1.32 0 2 0 C2 0.66 2 1.32 2 2 C1.01 1.67 0.02 1.34 -1 1 C-0.67 0.67 -0.34 0.34 0 0 Z " fill="#F5F5EC" transform="translate(20,62)"/>
<path d="M0 0 C1.98 0.99 1.98 0.99 4 2 C2.68 1.67 1.36 1.34 0 1 C0 0.67 0 0.34 0 0 Z " fill="#CBD4DE" transform="translate(264,60)"/>
<path d="M0 0 C0.66 1.32 1.32 2.64 2 4 C1.34 3.67 0.68 3.34 0 3 C0 2.01 0 1.02 0 0 Z " fill="#E4E4E5" transform="translate(336,58)"/>
<path d="M0 0 C1.65 0 3.3 0 5 0 C5 0.33 5 0.66 5 1 C3.35 1 1.7 1 0 1 C0 0.67 0 0.34 0 0 Z " fill="#E8E8E8" transform="translate(350,59)"/>
<path d="M0 0 C0.66 0 1.32 0 2 0 C1.67 1.32 1.34 2.64 1 4 C0.67 2.68 0.34 1.36 0 0 Z " fill="#E6E6E6" transform="translate(333,51)"/>
<path d="M0 0 C0.66 0 1.32 0 2 0 C1.67 0.99 1.34 1.98 1 3 C0.67 2.01 0.34 1.02 0 0 Z " fill="#E5E5E5" transform="translate(320,51)"/>
<path d="M0 0 C0.99 0.495 0.99 0.495 2 1 C1.67 1.66 1.34 2.32 1 3 C0.67 2.01 0.34 1.02 0 0 Z " fill="#F5F5EF" transform="translate(109,304)"/>
<path d="M0 0 C0.99 0.495 0.99 0.495 2 1 C1.34 1.66 0.68 2.32 0 3 C0 2.01 0 1.02 0 0 Z " fill="#F7F3F2" transform="translate(267,65)"/>
<path d="M0 0 C0.99 0.495 0.99 0.495 2 1 C1.67 1.66 1.34 2.32 1 3 C0.67 2.01 0.34 1.02 0 0 Z " fill="#F6F8EF" transform="translate(13,62)"/>
<path d="M0 0 C1.485 0.99 1.485 0.99 3 2 C2.01 2 1.02 2 0 2 C0 1.34 0 0.68 0 0 Z " fill="#80A4B7" transform="translate(265,57)"/>
<path d="M0 0 C4 1 4 1 4 1 Z " fill="#E3E3E3" transform="translate(314,57)"/>
<path d="M0 0 C0.66 0.66 1.32 1.32 2 2 C1.01 2.495 1.01 2.495 0 3 C0 2.01 0 1.02 0 0 Z " fill="#E5E5E5" transform="translate(340,55)"/>
<path d="M0 0 C1 4 1 4 1 4 Z " fill="#E5E5E5" transform="translate(333,55)"/>
<path d="M0 0 C1 4 1 4 1 4 Z " fill="#E6E6E6" transform="translate(357,54)"/>
<path d="M0 0 C0 3 0 3 0 3 Z " fill="#E5E5E5" transform="translate(343,54)"/>
<path d="M0 0 C4 1 4 1 4 1 Z " fill="#E6E6E6" transform="translate(346,50)"/>
<path d="M0 0 C1 4 1 4 1 4 Z " fill="#E6E6E6" transform="translate(301,49)"/>
<path d="M0 0 C3 1 3 1 3 1 Z " fill="#E8E8E8" transform="translate(128,315)"/>
<path d="M0 0 C0.33 0.66 0.66 1.32 1 2 C0.34 1.67 -0.32 1.34 -1 1 C-0.67 0.67 -0.34 0.34 0 0 Z " fill="#EFFAE5" transform="translate(255,303)"/>
<path d="M0 0 C3 1 3 1 3 1 Z " fill="#F2F8E7" transform="translate(93,297)"/>
<path d="" fill="#F4F6F4" transform="translate(0,0)"/>
<path d="M0 0 C0.66 0 1.32 0 2 0 C1.67 0.66 1.34 1.32 1 2 C0.67 1.34 0.34 0.68 0 0 Z " fill="#F9F4EB" transform="translate(80,289)"/>
<path d="M0 0 C0.66 0 1.32 0 2 0 C1.67 0.66 1.34 1.32 1 2 C0.67 1.34 0.34 0.68 0 0 Z " fill="#EFF6EE" transform="translate(298,275)"/>
<path d="" fill="#FAEFFF" transform="translate(0,0)"/>
<path d="" fill="#F7F4F2" transform="translate(0,0)"/>
<path d="M0 0 C0.33 0.66 0.66 1.32 1 2 C0.34 1.67 -0.32 1.34 -1 1 C-0.67 0.67 -0.34 0.34 0 0 Z " fill="#F7F9E4" transform="translate(6,120)"/>
<path d="M0 0 C0.66 0.66 1.32 1.32 2 2 C1.34 2 0.68 2 0 2 C0 1.34 0 0.68 0 0 Z " fill="#F4F6E7" transform="translate(66,65)"/>
<path d="M0 0 C3 1 3 1 3 1 Z " fill="#EDFBEE" transform="translate(297,63)"/>
<path d="M0 0 C0.33 0.66 0.66 1.32 1 2 C0.34 1.67 -0.32 1.34 -1 1 C-0.67 0.67 -0.34 0.34 0 0 Z " fill="#F5F6EE" transform="translate(66,62)"/>
<path d="" fill="#5C859D" transform="translate(0,0)"/>
<path d="" fill="#E6E6E6" transform="translate(0,0)"/>
<path d="" fill="#E8E8E8" transform="translate(0,0)"/>
<path d="" fill="#E5E5E5" transform="translate(0,0)"/>
<path d="M0 0 C3 1 3 1 3 1 Z " fill="#E4E4E4" transform="translate(308,56)"/>
<path d="" fill="#E6E6E6" transform="translate(0,0)"/>
<path d="" fill="#E5E5E5" transform="translate(0,0)"/>
<path d="M0 0 C3 1 3 1 3 1 Z " fill="#E3E3E3" transform="translate(348,53)"/>
<path d="M0 0 C0.66 0.66 1.32 1.32 2 2 C1.34 2 0.68 2 0 2 C0 1.34 0 0.68 0 0 Z " fill="#F9F4F9" transform="translate(93,52)"/>
<path d="" fill="#E7E7E7" transform="translate(0,0)"/>
<path d="" fill="#E7E7E7" transform="translate(0,0)"/>
<path d="M0 0 C3 1 3 1 3 1 Z " fill="#E2E2E2" transform="translate(314,49)"/>
<path d="M0 0 C2 1 2 1 2 1 Z " fill="#FAFBE8" transform="translate(213,312)"/>
<path d="M0 0 C2 1 2 1 2 1 Z " fill="#F6FAE9" transform="translate(225,311)"/>
<path d="" fill="#F5F4F6" transform="translate(0,0)"/>
<path d="M0 0 C2 1 2 1 2 1 Z " fill="#F6FAE7" transform="translate(256,302)"/>
<path d="M0 0 C2 1 2 1 2 1 Z " fill="#EFF6EB" transform="translate(282,288)"/>
<path d="" fill="#F0F7EC" transform="translate(0,0)"/>
<path d="M0 0 C2 1 2 1 2 1 Z " fill="#F5F6F4" transform="translate(61,268)"/>
<path d="" fill="#FBF6F7" transform="translate(0,0)"/>
<path d="M0 0 C2 1 2 1 2 1 Z " fill="#EFF3EF" transform="translate(304,264)"/>
<path d="" fill="#EAF7EA" transform="translate(0,0)"/>
<path d="" fill="#FAF8EE" transform="translate(0,0)"/>
<path d="" fill="#F3F6E5" transform="translate(0,0)"/>
<path d="" fill="#FEF6F0" transform="translate(0,0)"/>
<path d="" fill="#FBF0FF" transform="translate(0,0)"/>
<path d="" fill="#F9F1FE" transform="translate(0,0)"/>
<path d="M0 0 C2 1 2 1 2 1 Z " fill="#F9FBED" transform="translate(326,132)"/>
<path d="" fill="#F8F5F7" transform="translate(0,0)"/>
<path d="" fill="#F5F2F3" transform="translate(0,0)"/>
<path d="" fill="#F1F5F1" transform="translate(0,0)"/>
<path d="" fill="#F9EEFB" transform="translate(0,0)"/>
<path d="M0 0 C2 1 2 1 2 1 Z " fill="#F8EFEA" transform="translate(15,124)"/>
<path d="" fill="#F7F7EA" transform="translate(0,0)"/>
<path d="" fill="#FBF0FF" transform="translate(0,0)"/>
<path d="" fill="#F6F6E5" transform="translate(0,0)"/>
<path d="M0 0 C2 1 2 1 2 1 Z " fill="#F4F7F5" transform="translate(275,74)"/>
<path d="" fill="#F3F0F0" transform="translate(0,0)"/>
<path d="M0 0 C2 1 2 1 2 1 Z " fill="#FCFAE9" transform="translate(271,70)"/>
<path d="M0 0 C2 1 2 1 2 1 Z " fill="#EDFDFA" transform="translate(100,68)"/>
<path d="" fill="#F9F7E9" transform="translate(0,0)"/>
<path d="" fill="#F6F3F4" transform="translate(0,0)"/>
<path d="M0 0 C2 1 2 1 2 1 Z " fill="#F9FDEA" transform="translate(15,65)"/>
<path d="M0 0 C2 1 2 1 2 1 Z " fill="#FCF0FF" transform="translate(293,64)"/>
<path d="" fill="#155780" transform="translate(0,0)"/>
<path d="" fill="#EEF8FE" transform="translate(0,0)"/>
<path d="M0 0 C2 1 2 1 2 1 Z " fill="#F5F9EA" transform="translate(58,62)"/>
<path d="" fill="#0B5079" transform="translate(0,0)"/>
<path d="M0 0 C2 1 2 1 2 1 Z " fill="#E2E2E2" transform="translate(313,53)"/>
<path d="M0 0 C2 1 2 1 2 1 Z " fill="#E2E2E2" transform="translate(351,52)"/>
<path d="" fill="#105580" transform="translate(0,0)"/>
<path d="" fill="#85AEBF" transform="translate(0,0)"/>
<path d="M0 0 C2 1 2 1 2 1 Z " fill="#E6E6E6" transform="translate(350,49)"/>
<path d="M0 0 C2 1 2 1 2 1 Z " fill="#E6E6E6" transform="translate(341,49)"/>
<path d="M0 0 C2 1 2 1 2 1 Z " fill="#F5F7E8" transform="translate(161,49)"/>
<path d="" fill="#F7F1FF" transform="translate(0,0)"/>
<path d="" fill="#E6E7DF" transform="translate(0,0)"/>
<path d="" fill="#EDF8EA" transform="translate(0,0)"/>
<path d="" fill="#E5E7E6" transform="translate(0,0)"/>
<path d="" fill="#E3E3E3" transform="translate(0,0)"/>
<path d="" fill="#F7FEEC" transform="translate(0,0)"/>
<path d="" fill="#F7F5E9" transform="translate(0,0)"/>
<path d="" fill="#F3F7E9" transform="translate(0,0)"/>
<path d="" fill="#EBF8E7" transform="translate(0,0)"/>
<path d="" fill="#F9F1FF" transform="translate(0,0)"/>
<path d="" fill="#F8F6EA" transform="translate(0,0)"/>
<path d="" fill="#F2F1FF" transform="translate(0,0)"/>
<path d="" fill="#F4F8E9" transform="translate(0,0)"/>
<path d="" fill="#F2F9E7" transform="translate(0,0)"/>
<path d="" fill="#F3F5E7" transform="translate(0,0)"/>
<path d="" fill="#FBF4EE" transform="translate(0,0)"/>
<path d="" fill="#F5FAE3" transform="translate(0,0)"/>
<path d="" fill="#F3F6E5" transform="translate(0,0)"/>
<path d="" fill="#F8F0E5" transform="translate(0,0)"/>
<path d="" fill="#ECF8E0" transform="translate(0,0)"/>
<path d="" fill="#EEF8E0" transform="translate(0,0)"/>
<path d="" fill="#F7F6E4" transform="translate(0,0)"/>
<path d="" fill="#EEF0E3" transform="translate(0,0)"/>
<path d="" fill="#F5F8E3" transform="translate(0,0)"/>
<path d="" fill="#F4F6E8" transform="translate(0,0)"/>
<path d="" fill="#FFEFF9" transform="translate(0,0)"/>
<path d="" fill="#F9FDE2" transform="translate(0,0)"/>
<path d="" fill="#EDFEEB" transform="translate(0,0)"/>
<path d="" fill="#FBF3E6" transform="translate(0,0)"/>
<path d="" fill="#EDF6DB" transform="translate(0,0)"/>
<path d="" fill="#F0EDE8" transform="translate(0,0)"/>
<path d="" fill="#F7ECFC" transform="translate(0,0)"/>
<path d="" fill="#EFF3E5" transform="translate(0,0)"/>
<path d="" fill="#F5FAE6" transform="translate(0,0)"/>
<path d="" fill="#EBFCF6" transform="translate(0,0)"/>
<path d="" fill="#F0F4E5" transform="translate(0,0)"/>
<path d="" fill="#FBF0FE" transform="translate(0,0)"/>
<path d="" fill="#F3E9EA" transform="translate(0,0)"/>
<path d="" fill="#F1FEF5" transform="translate(0,0)"/>
<path d="" fill="#F0F8E3" transform="translate(0,0)"/>
<path d="" fill="#FCF3EE" transform="translate(0,0)"/>
<path d="" fill="#F7F3E7" transform="translate(0,0)"/>
<path d="" fill="#F1F8E8" transform="translate(0,0)"/>
<path d="" fill="#FCFAED" transform="translate(0,0)"/>
<path d="" fill="#ECFCFC" transform="translate(0,0)"/>
<path d="" fill="#EDFAE8" transform="translate(0,0)"/>
<path d="" fill="#F1F8FF" transform="translate(0,0)"/>
<path d="" fill="#F8F9EB" transform="translate(0,0)"/>
<path d="" fill="#FFF0F5" transform="translate(0,0)"/>
<path d="" fill="#FEEFF2" transform="translate(0,0)"/>
<path d="" fill="#E9F3F5" transform="translate(0,0)"/>
<path d="" fill="#F7F8E8" transform="translate(0,0)"/>
<path d="" fill="#F7FBED" transform="translate(0,0)"/>
<path d="" fill="#FEF3ED" transform="translate(0,0)"/>
<path d="" fill="#F8F0FF" transform="translate(0,0)"/>
<path d="" fill="#F8F6EA" transform="translate(0,0)"/>
<path d="" fill="#F4F0FF" transform="translate(0,0)"/>
<path d="" fill="#FBEEFF" transform="translate(0,0)"/>
<path d="" fill="#F3F9EB" transform="translate(0,0)"/>
<path d="" fill="#EBF2FC" transform="translate(0,0)"/>
<path d="" fill="#F3F9EB" transform="translate(0,0)"/>
<path d="" fill="#F5F6E6" transform="translate(0,0)"/>
<path d="" fill="#F2F9E9" transform="translate(0,0)"/>
<path d="" fill="#F4FBEB" transform="translate(0,0)"/>
<path d="" fill="#F4F2FF" transform="translate(0,0)"/>
<path d="" fill="#F0F7E7" transform="translate(0,0)"/>
<path d="" fill="#F6F2FF" transform="translate(0,0)"/>
<path d="" fill="#FEFAF1" transform="translate(0,0)"/>
<path d="" fill="#FFF5EB" transform="translate(0,0)"/>
<path d="" fill="#EFFAFE" transform="translate(0,0)"/>
<path d="" fill="#F0FFFF" transform="translate(0,0)"/>
<path d="" fill="#FFF6EF" transform="translate(0,0)"/>
<path d="" fill="#FAF3ED" transform="translate(0,0)"/>
<path d="" fill="#F5F8E3" transform="translate(0,0)"/>
<path d="" fill="#F1FCEC" transform="translate(0,0)"/>
<path d="" fill="#FCF3EC" transform="translate(0,0)"/>
<path d="" fill="#F6FEEF" transform="translate(0,0)"/>
<path d="" fill="#FBFCEC" transform="translate(0,0)"/>
<path d="" fill="#E8F8F7" transform="translate(0,0)"/>
<path d="" fill="#F5F1FF" transform="translate(0,0)"/>
<path d="" fill="#FAFDEC" transform="translate(0,0)"/>
<path d="" fill="#E7F6FB" transform="translate(0,0)"/>
<path d="" fill="#EAEEDF" transform="translate(0,0)"/>
<path d="" fill="#FFF8EB" transform="translate(0,0)"/>
<path d="" fill="#F0F9FF" transform="translate(0,0)"/>
<path d="" fill="#ECF8EA" transform="translate(0,0)"/>
<path d="" fill="#EBF1E3" transform="translate(0,0)"/>
<path d="" fill="#F6F9DE" transform="translate(0,0)"/>
<path d="" fill="#E9EFED" transform="translate(0,0)"/>
<path d="" fill="#EEFCFD" transform="translate(0,0)"/>
<path d="" fill="#EFF8E5" transform="translate(0,0)"/>
<path d="" fill="#EFEBDF" transform="translate(0,0)"/>
<path d="" fill="#FBEDFA" transform="translate(0,0)"/>
<path d="" fill="#F7F8E8" transform="translate(0,0)"/>
<path d="" fill="#F7F1E5" transform="translate(0,0)"/>
<path d="" fill="#FEFAF1" transform="translate(0,0)"/>
<path d="" fill="#FAF8EC" transform="translate(0,0)"/>
<path d="" fill="#EDF8EA" transform="translate(0,0)"/>
<path d="" fill="#FAF6ED" transform="translate(0,0)"/>
<path d="" fill="#F9F1FE" transform="translate(0,0)"/>
<path d="" fill="#FEF5F0" transform="translate(0,0)"/>
<path d="" fill="#F8EFEA" transform="translate(0,0)"/>
<path d="" fill="#FFF8F0" transform="translate(0,0)"/>
<path d="" fill="#EFF0E2" transform="translate(0,0)"/>
<path d="" fill="#EBE9F6" transform="translate(0,0)"/>
<path d="" fill="#F8FAE4" transform="translate(0,0)"/>
<path d="" fill="#F4F9E5" transform="translate(0,0)"/>
<path d="" fill="#F8FAE5" transform="translate(0,0)"/>
<path d="" fill="#E9F6FC" transform="translate(0,0)"/>
<path d="" fill="#F6F0FF" transform="translate(0,0)"/>
<path d="" fill="#F6F4E5" transform="translate(0,0)"/>
<path d="" fill="#FAF8EB" transform="translate(0,0)"/>
<path d="" fill="#F7F3E8" transform="translate(0,0)"/>
<path d="" fill="#F3F5E7" transform="translate(0,0)"/>
<path d="" fill="#EDF0FF" transform="translate(0,0)"/>
<path d="" fill="#F3FCE9" transform="translate(0,0)"/>
<path d="" fill="#F4F8EA" transform="translate(0,0)"/>
<path d="" fill="#F3F7E9" transform="translate(0,0)"/>
<path d="" fill="#EEFAEC" transform="translate(0,0)"/>
<path d="" fill="#EEFAE4" transform="translate(0,0)"/>
<path d="" fill="#FAF2FF" transform="translate(0,0)"/>
<path d="" fill="#FEF0ED" transform="translate(0,0)"/>
<path d="" fill="#F3FCEB" transform="translate(0,0)"/>
<path d="" fill="#235D86" transform="translate(0,0)"/>
<path d="" fill="#1E5780" transform="translate(0,0)"/>
<path d="" fill="#FAFBED" transform="translate(0,0)"/>
<path d="" fill="#FEF5EC" transform="translate(0,0)"/>
<path d="" fill="#F4F0E4" transform="translate(0,0)"/>
<path d="" fill="#EFF1FE" transform="translate(0,0)"/>
<path d="" fill="#F8FAEC" transform="translate(0,0)"/>
<path d="" fill="#0D4B73" transform="translate(0,0)"/>
<path d="" fill="#F2F0E4" transform="translate(0,0)"/>
<path d="" fill="#FAF8EB" transform="translate(0,0)"/>
<path d="" fill="#F0FBED" transform="translate(0,0)"/>
<path d="" fill="#FAFBED" transform="translate(0,0)"/>
<path d="" fill="#F4F0FF" transform="translate(0,0)"/>
<path d="" fill="#FCF8EC" transform="translate(0,0)"/>
<path d="" fill="#F3F7E9" transform="translate(0,0)"/>
<path d="" fill="#F9FCE9" transform="translate(0,0)"/>
<path d="" fill="#F0F9FE" transform="translate(0,0)"/>
<path d="" fill="#F4F6E8" transform="translate(0,0)"/>
<path d="" fill="#F0F1E3" transform="translate(0,0)"/>
<path d="" fill="#E5E5E5" transform="translate(0,0)"/>
<path d="" fill="#E8E8E8" transform="translate(0,0)"/>
<path d="" fill="#E6E6E6" transform="translate(0,0)"/>
<path d="" fill="#155178" transform="translate(0,0)"/>
<path d="" fill="#18537B" transform="translate(0,0)"/>
<path d="" fill="#E3E3E3" transform="translate(0,0)"/>
<path d="" fill="#E9E9E9" transform="translate(0,0)"/>
<path d="" fill="#FAF1E8" transform="translate(0,0)"/>
<path d="" fill="#18567E" transform="translate(0,0)"/>
<path d="" fill="#F7EFFF" transform="translate(0,0)"/>
<path d="" fill="#F0F9FE" transform="translate(0,0)"/>
<path d="" fill="#E4E4E4" transform="translate(0,0)"/>
<path d="" fill="#E7E7E7" transform="translate(0,0)"/>
<path d="" fill="#10517A" transform="translate(0,0)"/>
<path d="" fill="#F5F6E4" transform="translate(0,0)"/>
<path d="" fill="#FEF7ED" transform="translate(0,0)"/>
<path d="" fill="#16557E" transform="translate(0,0)"/>
</svg>
